<?xml version="1.0" standalone="no"?><!DOCTYPE svg PUBLIC "-//W3C//DTD SVG 1.1//EN" "http://www.w3.org/Graphics/SVG/1.1/DTD/svg11.dtd"><svg t="1539920283917" class="icon" style="" viewBox="0 0 1024 1024" version="1.1" xmlns="http://www.w3.org/2000/svg" p-id="1913" xmlns:xlink="http://www.w3.org/1999/xlink" width="128" height="128"><defs><style type="text/css"></style></defs><path d="M230.4 576.55296c-12.0832 9.70752-25.02656 23.87968-28.79488 41.984-5.12 24.65792-1.06496 55.54176 22.7328 79.74912 28.83584 29.36832 72.62208 37.39648 91.5456 38.74816 51.4048 3.72736 106.20928-21.7088 147.456-50.7904a325.632 325.632 0 0 0 70.41024-69.75488c-59.392-30.63808-133.48864-64.55296-212.70528-61.2352-40.46848 1.72032-69.46816 10.07616-90.64448 21.2992z m752.8448 135.5776c26.95168-63.2832 40.83712-131.35872 40.7552-200.13056C1024 229.70368 794.33728 0 512 0S0 229.66272 0 512 229.66272 1024 512 1024c170.3936 0 321.536-83.72224 414.63808-212.13184a56825.0368 56825.0368 0 0 0-322.3552-159.29344c-42.63936 48.57856-105.6768 97.32096-176.86528 118.49728-44.68736 13.312-85.03296 18.35008-127.1808 9.74848-41.7792-8.56064-72.4992-28.09856-90.39872-47.67744a170.47552 170.47552 0 0 1-27.19744-37.84704c0.69632 1.92512 1.2288 3.072 1.2288 3.072s-4.38272-7.53664-7.74144-19.49696a93.83936 93.83936 0 0 1-3.52256-31.17056 94.208 94.208 0 0 1 1.6384-24.08448c4.21888-20.23424 12.86144-43.8272 35.2256-65.69984 49.02912-48.04608 114.72896-50.62656 148.76672-50.42176 50.42176 0.28672 138.0352 22.36416 211.84512 48.45568 20.39808-43.54048 33.54624-90.112 41.984-121.11872h-306.7904v-33.1776H462.848v-66.3552H272.13824v-33.13664h190.6688V235.84768c0-9.09312 1.80224-16.5888 16.5888-16.5888h74.62912v82.90304h207.29856v33.1776h-207.2576v66.3552h165.80608s-16.67072 92.81536-68.73088 184.32c115.54816 41.24672 278.1184 104.8576 332.14464 126.07488z" fill="#1AACEB" p-id="1914"></path></svg>