<?xml version="1.0" standalone="no"?><!DOCTYPE svg PUBLIC "-//W3C//DTD SVG 1.1//EN" "http://www.w3.org/Graphics/SVG/1.1/DTD/svg11.dtd"><svg t="1547608944826" class="icon" style="" viewBox="0 0 1024 1024" version="1.1" xmlns="http://www.w3.org/2000/svg" p-id="8628" xmlns:xlink="http://www.w3.org/1999/xlink" width="200" height="200"><defs><style type="text/css"></style></defs><path d="M751.733 816.158c-16.551 0-29.967 13.416-29.967 29.967s13.416 29.967 29.967 29.967 29.967-13.416 29.967-29.967-13.416-29.967-29.967-29.967z m124.911-562.359c-9.454-13.099-19.54-25.708-30.318-37.695l-21.166 21.321c9.799 10.989 18.993 22.515 27.607 34.495l23.877-18.121zM961.5 516.492c0-76.33-19.087-148.179-52.654-211.137l-25.752 15.451c30.878 58.435 48.439 124.996 48.439 195.687 0 101.397-36.039 194.335-95.917 266.863-19.132-25.523-49.532-42.113-83.883-42.113-57.926 0-104.883 46.957-104.883 104.883s46.957 104.883 104.883 104.883c57.925 0 104.883-46.957 104.883-104.883 0-12.048-2.133-23.572-5.871-34.347C919.662 732.786 961.5 629.555 961.5 516.492z m-209.767 404.55c-41.375 0-74.917-33.542-74.917-74.917s33.542-74.917 74.917-74.917 74.917 33.542 74.917 74.917-33.541 74.917-74.917 74.917z m0-554.384c0-66.2-53.666-119.867-119.867-119.867h-14.983c-16.551 0-29.967 13.416-29.967 29.967s13.416 29.967 29.967 29.967c16.096 0 29.123-12.718 29.833-28.639 42.567 7.091 75.05 43.992 75.05 88.572 0 16.86-4.767 32.547-12.863 46.011L589.109 652.438c-15.701 26.234-44.311 43.854-77.109 43.854s-61.408-17.62-77.109-43.854l-119.795-239.77c-8.096-13.464-12.863-29.15-12.863-46.01 0-44.581 32.483-81.481 75.05-88.572 0.71 15.921 13.737 28.639 29.833 28.639 16.551 0 29.967-13.416 29.967-29.967s-13.416-29.967-29.967-29.967h-14.983c-66.201 0-119.867 53.666-119.867 119.867 0 21.67 5.87 41.919 15.931 59.46l119.826 239.753c18.309 31.932 50.851 54.591 88.993 59.367v45.97c0 105.82-55.719 134.85-119.867 134.85s-129.231-63.679-143.2-75.714C147.237 753.513 92.467 641.463 92.467 516.492 92.467 284.79 280.298 96.958 512 96.958c108.678 0 207.701 41.326 282.221 109.116l21.11-21.264C735.378 111.651 628.913 66.992 512 66.992c-248.251 0-449.5 201.249-449.5 449.5 0 132.9 57.762 252.201 149.485 334.442 22.588 20.253 89.78 85.092 165.165 85.092s149.833-37.458 149.833-164.817v-45.97c38.141-4.776 70.682-27.434 88.992-59.367l119.827-239.753c10.061-17.541 15.931-37.79 15.931-59.461z" p-id="8629"></path></svg>