<?xml version="1.0" standalone="no"?><!DOCTYPE svg PUBLIC "-//W3C//DTD SVG 1.1//EN" "http://www.w3.org/Graphics/SVG/1.1/DTD/svg11.dtd"><svg t="1541391844369" class="icon" style="" viewBox="0 0 1024 1024" version="1.1" xmlns="http://www.w3.org/2000/svg" p-id="1011" xmlns:xlink="http://www.w3.org/1999/xlink" width="128" height="128"><defs><style type="text/css"></style></defs><path d="M512.056593 0.282967C229.853874 0.282967 0.396153 229.740688 0.396153 511.971703c0 282.202719 229.457721 511.66044 511.66044 511.66044 282.231016 0 511.688737-229.457721 511.688737-511.66044C1023.74533 229.740688 794.146126 0.282967 512.056593 0.282967z m308.914779 815.36863a315.79087 315.79087 0 0 0-67.459269-144.284735 38.907925 38.907925 0 0 0-54.952138-4.951918 38.823035 38.823035 0 0 0-4.951918 54.952139 236.475296 236.475296 0 0 1 54.555985 150.934453c0 0.905494 0.282967 1.839284 0.282967 2.744778a430.845142 430.845142 0 0 1-236.390406 70.317232c-87.238643 0-168.252017-25.919752-236.362109-70.317232 0-0.905494 0.25467-1.6978 0.25467-2.744778 0-130.079805 105.88615-236.107439 236.107439-236.107439 121.647397 0 220.629159-98.981762 220.629159-220.600862 0-121.647397-98.981762-220.600862-220.629159-220.600862-121.6191 0-220.600862 98.953465-220.600862 220.600862a219.836852 219.836852 0 0 0 84.776832 173.458605 315.28153 315.28153 0 0 0-173.062451 226.486571 431.071515 431.071515 0 0 1-124.646845-303.566708c0-239.106886 194.454736-433.561623 433.533326-433.561622 239.106886 0 433.533326 194.454736 433.533326 433.561622a432.599536 432.599536 0 0 1-124.618547 303.679894zM369.469658 415.706422a142.671825 142.671825 0 0 1 142.473749-142.445452 142.671825 142.671825 0 0 1 142.473748 142.445452 142.615232 142.615232 0 0 1-142.473748 142.473748 142.671825 142.671825 0 0 1-142.473749-142.473748z" p-id="1012"></path></svg>