<?xml version="1.0" standalone="no"?><!DOCTYPE svg PUBLIC "-//W3C//DTD SVG 1.1//EN" "http://www.w3.org/Graphics/SVG/1.1/DTD/svg11.dtd"><svg t="1546839513441" class="icon" style="" viewBox="0 0 1024 1024" version="1.1" xmlns="http://www.w3.org/2000/svg" p-id="743" xmlns:xlink="http://www.w3.org/1999/xlink" width="128" height="128"><defs><style type="text/css"></style></defs><path d="M931.08224 0H286.33088a93.04064 93.04064 0 0 0-92.91776 92.91776v100.49536H85.32992A85.42208 85.42208 0 0 0 0 278.75328v659.9168A85.42208 85.42208 0 0 0 85.32992 1024h659.9168a85.42208 85.42208 0 0 0 85.32992-85.32992V830.58688h100.49536a93.04064 93.04064 0 0 0 92.928-92.91776V92.91776A93.04064 93.04064 0 0 0 931.08224 0z m-157.3888 938.67008a28.4672 28.4672 0 0 1-28.44672 28.44672H85.32992a28.4672 28.4672 0 0 1-28.44672-28.44672V278.75328a28.4672 28.4672 0 0 1 28.44672-28.44672h659.9168a28.4672 28.4672 0 0 1 28.44672 28.44672z m193.41312-201.00096a36.07552 36.07552 0 0 1-36.02432 36.02432h-100.49536V278.75328a85.42208 85.42208 0 0 0-85.32992-85.32992H250.30656V92.91776a36.07552 36.07552 0 0 1 36.02432-36.02432h644.75136a36.07552 36.07552 0 0 1 36.02432 36.02432z" p-id="744"></path><path d="M608.72704 580.28032H443.71968V415.27296a28.44672 28.44672 0 1 0-56.89344 0v165.00736h-164.9664a28.44672 28.44672 0 1 0 0 56.89344h164.97664v164.9664a28.44672 28.44672 0 1 0 56.89344 0V637.16352h164.99712a28.44672 28.44672 0 1 0 0-56.89344z" p-id="745"></path></svg>