<?xml version="1.0" standalone="no"?><!DOCTYPE svg PUBLIC "-//W3C//DTD SVG 1.1//EN" "http://www.w3.org/Graphics/SVG/1.1/DTD/svg11.dtd"><svg t="1544513471657" class="icon" style="" viewBox="0 0 1024 1024" version="1.1" xmlns="http://www.w3.org/2000/svg" p-id="5869" xmlns:xlink="http://www.w3.org/1999/xlink" width="200" height="200"><defs><style type="text/css"></style></defs><path d="M597.333333 725.333333H251.733333c-17.066667 0-29.866667 12.8-29.866666 29.866667 0 17.066667 12.8 29.866667 29.866666 29.866667H597.333333c17.066667 0 29.866667-12.8 29.866667-29.866667 0-21.333333-12.8-29.866667-29.866667-29.866667z m85.333334-520.533333H162.133333c-34.133333 0-55.466667 21.333333-55.466666 55.466667v580.266666c0 34.133333 21.333333 55.466667 55.466666 55.466667H682.666667c34.133333 0 59.733333-29.866667 59.733333-59.733333V260.266667c0-34.133333-21.333333-55.466667-59.733333-55.466667zM682.666667 810.666667c0 17.066667-12.8 29.866667-29.866667 29.866666H192c-17.066667 0-29.866667-12.8-29.866667-29.866666V290.133333c0-17.066667 12.8-29.866667 29.866667-29.866666h465.066667c17.066667 0 29.866667 12.8 29.866666 29.866666V810.666667z m-106.666667-422.4L366.933333 597.333333l-93.866666-93.866666c-12.8-12.8-34.133333-12.8-46.933334 0-4.266667 4.266667-4.266667 29.866667 0 38.4L341.333333 661.333333c4.266667 4.266667 17.066667 4.266667 21.333334 4.266667 4.266667 0 17.066667 0 21.333333-4.266667l230.4-230.4c12.8-12.8 12.8-29.866667 0-38.4-4.266667-17.066667-29.866667-17.066667-38.4-4.266666zM857.6 85.333333h-640v59.733334h614.4c17.066667 0 29.866667 12.8 29.866667 29.866666v601.6h59.733333V145.066667c-4.266667-34.133333-29.866667-59.733333-64-59.733334z" fill="#ffffff" p-id="5870"></path></svg>