<?xml version="1.0" standalone="no"?><!DOCTYPE svg PUBLIC "-//W3C//DTD SVG 1.1//EN" "http://www.w3.org/Graphics/SVG/1.1/DTD/svg11.dtd"><svg t="1541658125180" class="icon" style="" viewBox="0 0 1024 1024" version="1.1" xmlns="http://www.w3.org/2000/svg" p-id="7272" xmlns:xlink="http://www.w3.org/1999/xlink" width="128" height="128"><defs><style type="text/css"></style></defs><path d="M668.8 412.8v-251.2c0 0-124.8-65.6-270.4-14.4l270.4 265.6zM692.8 561.6v-390.4c0 0 147.2 65.6 188.8 227.2l-188.8 163.2zM612.8 675.2h248c72-176 24-252.8 24-252.8l-272 252.8zM475.2 707.2h368c0 0-44.8 118.4-203.2 168l-164.8-168zM355.2 627.2l259.2 257.6c-164.8 40-259.2-20.8-259.2-20.8v-236.8zM142.4 638.4l185.6-164.8v376c0 0-112-38.4-185.6-211.2v0zM137.6 612.8c0 0-43.2-136 17.6-254.4h256l-273.6 254.4zM171.2 331.2c0 0 54.4-121.6 200-177.6l174.4 177.6h-374.4z" p-id="7273"></path></svg>