<?xml version="1.0" standalone="no"?><!DOCTYPE svg PUBLIC "-//W3C//DTD SVG 1.1//EN" "http://www.w3.org/Graphics/SVG/1.1/DTD/svg11.dtd"><svg t="1542941290994" class="icon" style="" viewBox="0 0 1024 1024" version="1.1" xmlns="http://www.w3.org/2000/svg" p-id="2841" xmlns:xlink="http://www.w3.org/1999/xlink" width="128" height="128"><defs><style type="text/css"></style></defs><path d="M512 28.444444C244.622222 28.444444 28.444444 244.622222 28.444444 512s216.177778 483.555556 483.555556 483.555556 483.555556-216.177778 483.555556-483.555556S779.377778 28.444444 512 28.444444z m210.488889 617.244445c19.911111 19.911111 19.911111 56.888889 0 76.8-19.911111 19.911111-56.888889 19.911111-76.8 0L512 588.8l-133.688889 133.688889c-19.911111 19.911111-56.888889 19.911111-76.8 0-19.911111-19.911111-19.911111-56.888889 0-76.8l133.688889-133.688889-133.688889-133.688889c-19.911111-19.911111-19.911111-56.888889 0-76.8 19.911111-19.911111 56.888889-19.911111 76.8 0l133.688889 133.688889 133.688889-133.688889c19.911111-19.911111 56.888889-19.911111 76.8 0 19.911111 19.911111 19.911111 56.888889 0 76.8L588.8 512l133.688889 133.688889z" p-id="2842"></path></svg>