<?xml version="1.0" standalone="no"?><!DOCTYPE svg PUBLIC "-//W3C//DTD SVG 1.1//EN" "http://www.w3.org/Graphics/SVG/1.1/DTD/svg11.dtd"><svg t="1547610607859" class="icon" style="" viewBox="0 0 1024 1024" version="1.1" xmlns="http://www.w3.org/2000/svg" p-id="16052" xmlns:xlink="http://www.w3.org/1999/xlink" width="200" height="200"><defs><style type="text/css"></style></defs><path d="M907.636364 1024 395.636364 1024C369.92 1024 349.090909 1003.170909 349.090909 977.454545 349.090909 951.738182 369.92 930.909091 395.636364 930.909091L861.090909 930.909091 861.090909 418.909091C861.090909 393.192727 881.92 372.363636 907.636364 372.363636 933.352727 372.363636 954.181818 393.192727 954.181818 418.909091L954.181818 977.454545C954.181818 1003.170909 933.352727 1024 907.636364 1024ZM768 884.363636 116.363636 884.363636C90.647273 884.363636 69.818182 863.534545 69.818182 837.818182L69.818182 46.545455C69.818182 20.829091 90.647273 0 116.363636 0L768 0C793.716364 0 814.545455 20.829091 814.545455 46.545455L814.545455 837.818182C814.545455 863.534545 793.716364 884.363636 768 884.363636ZM721.454545 139.636364C721.454545 113.92 700.625455 93.090909 674.909091 93.090909L209.454545 93.090909C183.738182 93.090909 162.909091 113.92 162.909091 139.636364L162.909091 744.727273C162.909091 770.443636 183.738182 791.272727 209.454545 791.272727L674.909091 791.272727C700.625455 791.272727 721.454545 770.443636 721.454545 744.727273L721.454545 139.636364ZM628.363636 698.181818 395.636364 698.181818C369.92 698.181818 349.090909 677.329455 349.090909 651.636364 349.090909 625.92 369.92 605.090909 395.636364 605.090909L628.363636 605.090909C654.056727 605.090909 674.909091 625.92 674.909091 651.636364 674.909091 677.329455 654.056727 698.181818 628.363636 698.181818ZM628.363636 488.727273 395.636364 488.727273C369.92 488.727273 349.090909 467.898182 349.090909 442.181818 349.090909 416.465455 369.92 395.636364 395.636364 395.636364L628.363636 395.636364C654.056727 395.636364 674.909091 416.465455 674.909091 442.181818 674.909091 467.898182 654.056727 488.727273 628.363636 488.727273ZM628.363636 256 395.636364 256C369.92 256 349.090909 235.170909 349.090909 209.454545 349.090909 183.738182 369.92 162.909091 395.636364 162.909091L628.363636 162.909091C654.056727 162.909091 674.909091 183.738182 674.909091 209.454545 674.909091 235.170909 654.056727 256 628.363636 256ZM256 698.181818C230.283636 698.181818 209.454545 677.329455 209.454545 651.636364 209.454545 625.92 230.283636 605.090909 256 605.090909 281.716364 605.090909 302.545455 625.92 302.545455 651.636364 302.545455 677.329455 281.716364 698.181818 256 698.181818ZM256 488.727273C230.283636 488.727273 209.454545 467.898182 209.454545 442.181818 209.454545 416.465455 230.283636 395.636364 256 395.636364 281.716364 395.636364 302.545455 416.465455 302.545455 442.181818 302.545455 467.898182 281.716364 488.727273 256 488.727273ZM256 256C230.283636 256 209.454545 235.170909 209.454545 209.454545 209.454545 183.738182 230.283636 162.909091 256 162.909091 281.716364 162.909091 302.545455 183.738182 302.545455 209.454545 302.545455 235.170909 281.716364 256 256 256Z" p-id="16053"></path></svg>