<?xml version="1.0" standalone="no"?><!DOCTYPE svg PUBLIC "-//W3C//DTD SVG 1.1//EN" "http://www.w3.org/Graphics/SVG/1.1/DTD/svg11.dtd"><svg t="1544513332684" class="icon" style="" viewBox="0 0 1024 1024" version="1.1" xmlns="http://www.w3.org/2000/svg" p-id="5313" xmlns:xlink="http://www.w3.org/1999/xlink" width="200" height="200"><defs><style type="text/css"></style></defs><path d="M678.826667 910.506667h-64V157.653333H189.013333v752.853334h-64V93.653333h553.813334v816.853334z" fill="#ffffff" p-id="5314"></path><path d="M83.84 866.346667H960v64H83.84z" fill="#ffffff" p-id="5315"></path><path d="M859.52 441.813333h64v478.506667h-64zM664.32 562.346667h119.04v64h-119.04zM664.32 720.853333h119.04v64h-119.04zM523.733333 920.32H279.893333V641.493333h243.84z m-179.84-64h115.84v-150.826667h-115.84zM284.586667 321.493333h64v143.146667h-64zM455.253333 321.493333h64v143.146667h-64z" fill="#ffffff" p-id="5316"></path><path d="M653.653333 313.6v69.12l306.133334 123.733333V437.333333l-306.133334-123.733333z" fill="#ffffff" p-id="5317"></path></svg>