<?xml version="1.0" standalone="no"?><!DOCTYPE svg PUBLIC "-//W3C//DTD SVG 1.1//EN" "http://www.w3.org/Graphics/SVG/1.1/DTD/svg11.dtd"><svg t="1544513078552" class="icon" style="" viewBox="0 0 1024 1024" version="1.1" xmlns="http://www.w3.org/2000/svg" p-id="2643" xmlns:xlink="http://www.w3.org/1999/xlink" width="200" height="200"><defs><style type="text/css"></style></defs><path d="M49.739541 277.655082L499.241967 5.254295a33.57377 33.57377 0 0 1 50.981771 28.705574v940.065574a33.57377 33.57377 0 0 1-33.573771 33.57377H67.147541a33.57377 33.57377 0 0 1-33.573771-33.57377V306.39423a33.57377 33.57377 0 0 1 16.165771-28.705574z m922.640787 174.583607a33.57377 33.57377 0 0 1 16.16577 28.705573v493.097968a33.57377 33.57377 0 0 1-33.57377 33.57377H630.733639a33.57377 33.57377 0 0 1-33.57377-33.57377v-689.605246a33.57377 33.57377 0 0 1 50.98177-28.705574L972.380328 452.238689z m-291.420328 19.355278a16.786885 16.786885 0 0 0-16.786885 16.786885v61.020328a16.786885 16.786885 0 0 0 16.786885 16.786886h61.037115a16.786885 16.786885 0 0 0 16.786885-16.786886v-61.020328a16.786885 16.786885 0 0 0-16.786885-16.786885h-61.020328z m157.662426 0a16.786885 16.786885 0 0 0-16.786885 16.786885v61.020328a16.786885 16.786885 0 0 0 16.786885 16.786886h61.020328a16.786885 16.786885 0 0 0 16.786885-16.786886v-61.020328a16.786885 16.786885 0 0 0-16.786885-16.786885h-61.020328z m-157.645639 173.408525a16.786885 16.786885 0 0 0-16.786885 16.786885v61.020328a16.786885 16.786885 0 0 0 16.786885 16.786885H741.980328a16.786885 16.786885 0 0 0 16.786885-16.786885v-61.020328a16.786885 16.786885 0 0 0-16.786885-16.786885h-61.020328z m157.645639 0a16.786885 16.786885 0 0 0-16.786885 16.786885v61.020328a16.786885 16.786885 0 0 0 16.786885 16.786885h61.020328a16.786885 16.786885 0 0 0 16.786885-16.786885v-61.020328a16.786885 16.786885 0 0 0-16.786885-16.786885h-61.020328z m-157.645639 189.188197a16.786885 16.786885 0 0 0-16.786885 16.786885v61.020328a16.786885 16.786885 0 0 0 16.786885 16.786885H741.980328a16.786885 16.786885 0 0 0 16.786885-16.786885v-61.020328a16.786885 16.786885 0 0 0-16.786885-16.786885h-61.020328z m157.645639 0a16.786885 16.786885 0 0 0-16.786885 16.786885v61.020328a16.786885 16.786885 0 0 0 16.786885 16.786885h61.020328a16.786885 16.786885 0 0 0 16.786885-16.786885v-61.020328a16.786885 16.786885 0 0 0-16.786885-16.786885h-61.020328zM151.115541 336.258098a16.786885 16.786885 0 0 0-16.786885 16.786886v83.984786a16.786885 16.786885 0 0 0 16.786885 16.786886h83.984787a16.786885 16.786885 0 0 0 16.786885-16.786886v-83.984786a16.786885 16.786885 0 0 0-16.786885-16.786886H151.115541z m215.57718 1.947279a16.786885 16.786885 0 0 0-16.786885 16.786885v83.968a16.786885 16.786885 0 0 0 16.786885 16.786886h83.984787a16.786885 16.786885 0 0 0 16.786885-16.786886v-83.968a16.786885 16.786885 0 0 0-16.786885-16.786885h-83.984787zM151.115541 554.588328a16.786885 16.786885 0 0 0-16.786885 16.786885v83.968a16.786885 16.786885 0 0 0 16.786885 16.786885h83.984787a16.786885 16.786885 0 0 0 16.786885-16.786885v-83.968a16.786885 16.786885 0 0 0-16.786885-16.786885H151.115541z m215.57718 4.331016a16.786885 16.786885 0 0 0-16.786885 16.786886v83.968a16.786885 16.786885 0 0 0 16.786885 16.786885h83.984787a16.786885 16.786885 0 0 0 16.786885-16.786885v-83.968a16.786885 16.786885 0 0 0-16.786885-16.786886h-83.984787zM151.115541 772.90177a16.786885 16.786885 0 0 0-16.786885 16.786886v83.968a16.786885 16.786885 0 0 0 16.786885 16.786885h83.984787a16.786885 16.786885 0 0 0 16.786885-16.786885v-83.968a16.786885 16.786885 0 0 0-16.786885-16.786886H151.115541z m215.57718 6.714755a16.786885 16.786885 0 0 0-16.786885 16.786885v83.984787a16.786885 16.786885 0 0 0 16.786885 16.786885h83.984787a16.786885 16.786885 0 0 0 16.786885-16.786885v-83.968a16.786885 16.786885 0 0 0-16.786885-16.786886h-83.984787z" p-id="2644" fill="#ffffff"></path></svg>