<?xml version="1.0" standalone="no"?><!DOCTYPE svg PUBLIC "-//W3C//DTD SVG 1.1//EN" "http://www.w3.org/Graphics/SVG/1.1/DTD/svg11.dtd"><svg t="1542088145035" class="icon" style="" viewBox="0 0 1024 1024" version="1.1" xmlns="http://www.w3.org/2000/svg" p-id="3738" xmlns:xlink="http://www.w3.org/1999/xlink" width="128" height="128"><defs><style type="text/css"></style></defs><path d="M856.970971 167.584914a63.049143 63.049143 0 0 1 40.6528 14.848c26.667886 22.337829 30.325029 61.893486 8.192 88.327315l-446.171428 532.231314c-12.1856 14.526171-47.294171 53.423543-47.294172 53.423543s-30.032457-29.725257-46.679771-48.405943L122.792229 577.521371c-24.912457-23.844571-25.643886-63.546514-1.609143-88.707657a63.136914 63.136914 0 0 1 45.758171-19.631543c15.477029 0 30.910171 5.690514 42.920229 17.173943l195.452343 185.212343 403.909485-481.792a62.025143 62.025143 0 0 1 47.747657-22.191543m0-58.514285a120.539429 120.539429 0 0 0-92.613485 43.125028L400.427886 586.327771l-150.3232-142.4384a119.808 119.808 0 0 0-83.1488-33.221485 122.309486 122.309486 0 0 0-88.078629 37.727085c-46.255543 48.449829-44.690286 125.3376 3.452343 171.402972l241.327543 229.039543c17.846857 19.7632 46.270171 47.9232 47.498971 49.152a58.543543 58.543543 0 0 0 41.1648 16.925257l1.6384-0.029257a58.441143 58.441143 0 0 0 41.7792-19.265829c1.477486-1.623771 35.986286-39.877486 48.698515-55.047314l446.186057-532.245943a119.851886 119.851886 0 0 0 27.633371-88.6784 120.978286 120.978286 0 0 0-43.081143-82.095543 121.870629 121.870629 0 0 0-78.204343-28.481828z" fill="" p-id="3739"></path><path d="M797.125486 303.733029a14.613943 14.613943 0 0 1-11.249372-23.946972l30.178743-36.395886a14.599314 14.599314 0 1 1 22.513372 18.651429L808.404114 298.422857a14.555429 14.555429 0 0 1-11.278628 5.310172zM618.671543 510.405486a14.613943 14.613943 0 0 1-10.927543-24.341943l143.857371-161.835886a14.613943 14.613943 0 1 1 21.855086 19.426743l-143.857371 161.835886a14.599314 14.599314 0 0 1-10.927543 4.9152z" fill="" p-id="3740"></path></svg>