<?xml version="1.0" standalone="no"?><!DOCTYPE svg PUBLIC "-//W3C//DTD SVG 1.1//EN" "http://www.w3.org/Graphics/SVG/1.1/DTD/svg11.dtd"><svg t="1544081138006" class="icon" style="" viewBox="0 0 1024 1024" version="1.1" xmlns="http://www.w3.org/2000/svg" p-id="1104" xmlns:xlink="http://www.w3.org/1999/xlink" width="128" height="128"><defs><style type="text/css"></style></defs><path d="M400 124.8v374.4c0 54.4 41.6 96 96 96h412.8c-32 198.4-204.8 352-412.8 352-230.4 0-416-185.6-416-416 0-198.4 137.6-364.8 320-406.4m64-73.6c-249.6 16-448 224-448 480 0 265.6 214.4 480 480 480s480-214.4 480-480h-480c-19.2 0-32-16-32-32v-448z" p-id="1105"></path><path d="M560 83.2c185.6 28.8 336 166.4 374.4 348.8H560V83.2m-64-67.2v448c0 19.2 16 32 32 32h480C992 227.2 768 16 496 16z" p-id="1106"></path></svg>