<?xml version="1.0" standalone="no"?><!DOCTYPE svg PUBLIC "-//W3C//DTD SVG 1.1//EN" "http://www.w3.org/Graphics/SVG/1.1/DTD/svg11.dtd"><svg t="1540345378976" class="icon" style="" viewBox="0 0 1024 1024" version="1.1" xmlns="http://www.w3.org/2000/svg" p-id="6190" xmlns:xlink="http://www.w3.org/1999/xlink" width="128" height="128"><defs><style type="text/css"></style></defs><path d="M431.282453 83.389348H595.725616c22.511608 0 40.759747-18.249158 40.759747-40.759747s-18.248139-40.759747-40.759747-40.759748H431.282453c-22.510589 0-40.759747 18.249158-40.759747 40.759748s18.249158 40.759747 40.759747 40.759747zM867.055102 163.020648H159.952967c-22.510589 0-40.759747 18.249158-40.759747 40.759747s18.249158 40.759747 40.759747 40.759747h707.102135c22.511608 0 40.759747-18.249158 40.759748-40.759747s-18.248139-40.759747-40.759748-40.759747zM834.989409 330.756179c-22.511608 0-40.759747 18.249158-40.759747 40.759747v570.965598H241.001687V371.515926c0-22.510589-18.249158-40.759747-40.759748-40.759747s-40.759747 18.249158-40.759747 40.759747v652.485093h716.266964V371.515926c0-22.510589-18.249158-40.759747-40.759747-40.759747z" p-id="6191"></path><path d="M428.465955 805.6429V371.515926c0-22.510589-18.249158-40.759747-40.759748-40.759747s-40.759747 18.249158-40.759747 40.759747v434.126974c0 22.511608 18.249158 40.759747 40.759747 40.759748s40.759747-18.248139 40.759748-40.759748zM678.417973 805.6429V371.515926c0-22.510589-18.248139-40.759747-40.759748-40.759747s-40.759747 18.249158-40.759747 40.759747v434.126974c0 22.511608 18.248139 40.759747 40.759747 40.759748s40.759747-18.248139 40.759748-40.759748z" p-id="6192"></path></svg>