<?xml version="1.0" standalone="no"?><!DOCTYPE svg PUBLIC "-//W3C//DTD SVG 1.1//EN" "http://www.w3.org/Graphics/SVG/1.1/DTD/svg11.dtd"><svg t="1545442765041" class="icon" style="" viewBox="0 0 1024 1024" version="1.1" xmlns="http://www.w3.org/2000/svg" p-id="6940" xmlns:xlink="http://www.w3.org/1999/xlink" width="128" height="128"><defs><style type="text/css"></style></defs><path d="M170.616903 127.962678a42.654226 42.654226 0 0 0-42.654225 42.654225v674.405965a42.654226 42.654226 0 0 0 42.654225 42.654226h91.280044a42.654226 42.654226 0 1 1 0 85.308452H170.616903a127.962678 127.962678 0 0 1-127.962677-127.962678V170.616903a127.962678 127.962678 0 0 1 127.962677-127.962677h554.163703a127.962678 127.962678 0 0 1 127.962677 127.962677v93.96726a42.654226 42.654226 0 1 1-85.308451 0V170.616903a42.654226 42.654226 0 0 0-42.654226-42.654225H170.616903z" fill="#2c2c2c" p-id="6941"></path><path d="M213.271129 341.233807a42.654226 42.654226 0 0 1 42.654226-42.654226h310.650727a42.654226 42.654226 0 1 1 0 85.308452H255.925355a42.654226 42.654226 0 0 1-42.654226-42.654226zM213.271129 511.85071a42.654226 42.654226 0 0 1 42.654226-42.654226h134.019578a42.654226 42.654226 0 1 1 0 85.308452H255.925355a42.654226 42.654226 0 0 1-42.654226-42.654226zM796.013163 382.181864a42.057067 42.057067 0 0 1 59.971841 0l155.048111 156.924897a43.166077 43.166077 0 0 1-0.255925 60.910234l-413.447411 411.61328a42.142375 42.142375 0 0 1-29.729996 12.327071H412.551672A42.654226 42.654226 0 0 1 370.153372 981.047195v-150.057567c0-11.388678 4.436039-22.30816 12.369725-30.369809l209.986754-212.460699a42.057067 42.057067 0 0 1 59.971842 0c16.54984 16.720457 16.54984 43.933853 0 60.654309l-197.53172 199.920357v89.403257H550.239513l370.579915-368.959053-94.820344-95.972008-43.422002 43.933852 36.512017 36.93856c16.54984 16.763111 16.54984 43.933853 0 60.654309a42.057067 42.057067 0 0 1-59.971842 0l-66.455283-67.265714a43.294039 43.294039 0 0 1 0-60.696964l103.351189-104.588161z" fill="#2c2c2c" p-id="6942"></path></svg>