<?xml version="1.0" standalone="no"?><!DOCTYPE svg PUBLIC "-//W3C//DTD SVG 1.1//EN" "http://www.w3.org/Graphics/SVG/1.1/DTD/svg11.dtd"><svg t="1547609322936" class="icon" style="" viewBox="0 0 1024 1024" version="1.1" xmlns="http://www.w3.org/2000/svg" p-id="10594" xmlns:xlink="http://www.w3.org/1999/xlink" width="200" height="200"><defs><style type="text/css"></style></defs><path d="M880.432 797.968h-0.064v-40.624c0-82.688-67.808-150.064-151.184-150.064h-9.728c-83.152-0.256-150.848 66.896-151.264 150.064v106.56c0 45.344-37.168 82.272-82.88 82.272h-9.792c-45.712 0-82.896-36.928-82.896-82.272V664.352h28.272v-30.208c170.48-15.696 205.44-222.528 231.072-374.416l5.936-35.104c12.016-68.32 3.152-121.184-26.352-157.28A116.032 116.032 0 0 0 549.92 24.96h-52.688a47.936 47.936 0 0 0-34.72-14.944 47.84 47.84 0 0 0-48.032 47.664v0.048a47.84 47.84 0 0 0 80.384 34.976h53.056a48.56 48.56 0 0 1 30.576 17.392c16.336 19.84 20.48 55.44 12.176 102.976l-6.08 35.472C555.888 418.72 525.12 550.912 420.816 565.904v-27.376h-128.096v28.128c-108.864-10.864-140.272-144.72-169.52-318.096a8660.48 8660.48 0 0 0-6.016-35.536c-8.16-46.784-4.224-82.064 11.488-102.096A48.736 48.736 0 0 1 160 92.72h53.008a47.856 47.856 0 0 0 80.368-35.04A47.856 47.856 0 0 0 245.344 10.08c-13.184 0-25.744 5.344-34.72 14.88H157.856a116.128 116.128 0 0 0-81.552 42.4C46.784 103.392 37.936 156.336 49.92 224.64l5.968 35.168C81.824 413.376 117.296 623.04 292.8 634.592v29.76h31.52v199.552c0 82.704 67.808 150.064 151.2 150.064h9.728c83.184 0.256 150.848-66.896 151.28-150.064v-106.56c0-45.328 37.168-82.256 82.864-82.256h9.808c45.696 0 82.864 36.928 82.864 82.256v41.248c-43.808 14.512-75.536 55.584-75.536 104.048 0 60.592 49.504 109.68 110.512 109.68 61.088 0 110.656-49.088 110.656-109.68a109.968 109.968 0 0 0-77.264-104.672z m-36.432 159.36a53.12 53.12 0 0 1-42.896-21.904 34.928 34.928 0 0 1-4.288-4.88 35.92 35.92 0 0 1-6.064-27.456 53.28 53.28 0 0 1 106.56 0.912 53.296 53.296 0 0 1-53.312 53.328z" p-id="10595"></path></svg>