<?xml version="1.0" standalone="no"?><!DOCTYPE svg PUBLIC "-//W3C//DTD SVG 1.1//EN" "http://www.w3.org/Graphics/SVG/1.1/DTD/svg11.dtd"><svg t="1547609257834" class="icon" style="" viewBox="0 0 1024 1024" version="1.1" xmlns="http://www.w3.org/2000/svg" p-id="10050" xmlns:xlink="http://www.w3.org/1999/xlink" width="200" height="200"><defs><style type="text/css"></style></defs><path d="M376.394 215.756l25.155 0 0 13.94c0 2.759 0.835 5.241 2.019 7.545 1.196 6.564 6.634 11.548 13.47 11.548 4.665 0 8.592-2.395 11.121-5.895 4.111-3.078 6.94-7.713 6.94-13.199l0-13.94 19.52 0c9.276 0 16.793-7.546 16.793-16.789 0-9.243-7.517-16.793-16.793-16.793l-19.52 0 0-20.942c0-9.276-7.518-16.793-16.789-16.793-9.277 0-16.761 7.517-16.761 16.793l0 20.942-25.155 0c-9.243 0-16.761 7.55-16.761 16.793C359.633 208.21 367.146 215.756 376.394 215.756L376.394 215.756zM376.394 215.756" p-id="10051"></path><path d="M759.789 820.6l-1.121-3.369c-47.04-114.26-143.281-195.393-257.194-220.975 68.797-49.038 115.47-154.205 115.47-279.242 0-79.528-19.608-154.998-55.218-212.506l-4.228-6.822-7.531-2.774c-86.805-31.883-186.303-31.883-273.043 0l-7.537 2.774-4.227 6.822c-35.623 57.479-55.25 132.963-55.25 212.506 0 128.354 49.114 235.947 120.945 283.184C224.793 629.416 135.003 708.17 90.076 817.23l-1.107 3.369c-4.336 17.867-11.82 63.007 12.378 96.105 9.548 13.063 28.021 29.124 61.754 31.476 31.081 2.135 118.567 4.288 261.299 6.391l1.046 0 0.184 0c141.446-2.107 228.932-4.256 260.088-6.391 33.672-2.352 52.131-18.412 61.675-31.476C771.608 883.606 764.092 838.477 759.789 820.6L759.789 820.6zM285.708 126.407c81.416-27.76 173.959-27.76 255.476 0 29.167 50.512 45.655 114.767 48.71 183.259-157.249-30.982-293.67-11.666-352.928 0.258C239.987 241.314 256.49 176.971 285.708 126.407L285.708 126.407zM239.068 332.728c47.528-10.201 189.017-33.938 348.738-0.305C578.014 477.233 502.183 594.2 413.431 594.2 324.739 594.2 248.964 477.402 239.068 332.728L239.068 332.728zM730.003 896.754c-5.907 8.052-15.513 12.43-29.27 13.402-32.447 2.223-125.202 4.479-275.765 6.718l0.375 24.92-1.571-24.92c-150.563-2.238-243.319-4.495-275.686-6.718-13.836-0.973-23.443-5.351-29.331-13.402-10.759-14.715-9.929-40.235-5.452-59.896 53.979-129.082 174.573-212.702 307.499-213.35l3.598 0.226c1.09 0 2.291-0.08 3.313-0.094 133.23 0.516 253.81 84.136 307.737 213.199C739.932 856.519 740.743 882.039 730.003 896.754L730.003 896.754zM730.003 896.754" p-id="10052"></path><path d="M936.061 812.46c-37.068-116.129-118.628-159.982-172.603-189.004-8.609-4.636-16.577-8.91-23.672-13.15-9.76-5.717-19.759-10.441-28.613-14.608-4.969-2.351-11.153-5.259-15.517-7.686C818.104 406.105 802.403 244.29 801.737 238.228c-4.791-93.061-94.684-126.432-141.54-131.082l-15.428-1.53-3.06 30.879 15.456 1.535c4.425 0.436 108.93 11.833 113.654 102.636 0.062 0.727 3.092 34.413-4.786 87.134-35.524-14.17-88.898-17.535-96.171-17.896l-1.577 31.005c26.432 1.347 71.073 7.315 92.108 17.883-12.73 60.661-39.522 138.598-95.895 219.81l-1.699 3.163c-8.427 21.476 14.729 32.371 35.159 41.995 8.062 3.819 17.216 8.104 26.032 13.275 7.367 4.377 15.733 8.891 24.766 13.742 52.553 28.248 124.503 66.936 157.235 168.83 6.151 39.128 0.244 51.586-2.576 55.129-1.332 1.686-3.486 3.44-9.032 3.819-20.641 1.379-48.16 2.122-48.25 2.122l0.85 31.037c0 0 28.275-0.773 49.493-2.187 13.246-0.905 23.762-6.09 31.213-15.436C939.908 878.773 942.729 853.571 936.061 812.46L936.061 812.46zM936.061 812.46" p-id="10053"></path></svg>