<?xml version="1.0" standalone="no"?><!DOCTYPE svg PUBLIC "-//W3C//DTD SVG 1.1//EN" "http://www.w3.org/Graphics/SVG/1.1/DTD/svg11.dtd"><svg t="1545441272996" class="icon" style="" viewBox="0 0 1024 1024" version="1.1" xmlns="http://www.w3.org/2000/svg" p-id="1784" xmlns:xlink="http://www.w3.org/1999/xlink" width="128" height="128"><defs><style type="text/css"></style></defs><path d="M512.041444 244.020666c-148.131759 0-267.998777 119.999025-267.998777 267.9998 0 147.957797 119.867018 267.998777 267.998777 267.998777 147.959843 0 267.9998-120.04098 267.9998-267.998777C780.041244 364.018667 660.001287 244.020666 512.041444 244.020666zM690.70866 556.642756 333.288271 556.642756l0-89.289606 357.419366 0L690.707636 556.642756zM780.041244 65.311495 244.042667 65.311495c-98.755188 0-178.753173 80.08599-178.753173 178.709171l0 535.9996c0 98.713232 79.997985 178.667216 178.753173 178.667216l535.998577 0c98.581226 0 178.667216-79.953983 178.667216-178.667216L958.70846 244.020666C958.70846 145.397485 878.62247 65.311495 780.041244 65.311495zM869.286848 735.353974c0 73.979922-59.932997 134.042879-133.910872 134.042879L288.623002 869.396853c-73.979922 0-134.000923-60.062957-134.000923-134.042879L154.622078 288.643979c0-73.979922 60.021002-133.912919 134.000923-133.912919l446.752973 0c73.977875 0 133.910872 59.932997 133.910872 133.912919L869.286848 735.353974z" p-id="1785"></path></svg>