<?xml version="1.0" standalone="no"?><!DOCTYPE svg PUBLIC "-//W3C//DTD SVG 1.1//EN" "http://www.w3.org/Graphics/SVG/1.1/DTD/svg11.dtd"><svg t="1547616933560" class="icon" style="" viewBox="0 0 1024 1024" version="1.1" xmlns="http://www.w3.org/2000/svg" p-id="21040" xmlns:xlink="http://www.w3.org/1999/xlink" width="200" height="200"><defs><style type="text/css"></style></defs><path d="M843.192389 6.972794H467.285702a63.137866 63.137866 0 0 0-44.637551 18.48599L136.156757 311.97883a63.089771 63.089771 0 0 0-18.471663 44.623225v597.31696c0 34.856809 28.264684 63.10819 63.12354 63.108191H843.192389c34.856809 0 63.122517-28.250358 63.122517-63.108191V70.110661c-0.001023-34.873182-28.265707-63.137866-63.122517-63.137867z m-414.217148 101.434001v207.812608H221.175936l207.799305-207.812608zM843.192389 953.919015H180.808634V358.321206h269.216997c11.623712 0 21.021737-9.425655 21.021737-21.036064V70.110661h372.145021v883.808354z" p-id="21041"></path><path d="M276.423104 470.251237c-11.624735 0-21.051413 9.398025-21.051413 21.021737 0 11.624735 9.426678 21.05039 21.051413 21.05039h454.978423c11.623712 0 21.036063-9.425655 21.036063-21.05039 0-11.623712-9.411328-21.021737-21.036063-21.021737H276.423104zM276.423104 624.748675h227.481537c11.623712 0 21.037087-9.442027 21.037087-21.05039 0-11.623712-9.412352-21.037087-21.037087-21.037087H276.423104c-11.624735 0-21.051413 9.412352-21.051413 21.037087 0 11.608362 9.426678 21.05039 21.051413 21.05039zM615.554287 582.661198c-11.623712 0-21.036063 9.412352-21.036063 21.037087 0 11.609386 9.411328 21.05039 21.036063 21.05039h123.935436c11.610409 0 21.022761-9.442027 21.022761-21.05039 0-11.623712-9.412352-21.037087-21.022761-21.037087H615.554287zM276.423104 737.143287h454.978423c11.623712 0 21.036063-9.411328 21.036063-21.036064s-9.411328-21.037087-21.036063-21.037087H276.423104c-11.624735 0-21.051413 9.412352-21.051413 21.037087s9.426678 21.036063 21.051413 21.036064zM739.489723 807.494424H512.00614c-11.609386 0-21.049366 9.412352-21.049367 21.037087 0 11.597106 9.441004 21.037087 21.049367 21.037086h227.483583c11.610409 0 21.022761-9.439981 21.022761-21.037086 0-11.624735-9.412352-21.037087-21.022761-21.037087zM400.343191 807.494424H276.423104c-11.624735 0-21.051413 9.412352-21.051413 21.037087 0 11.597106 9.426678 21.037087 21.051413 21.037086h123.920087c11.611432 0 21.051413-9.439981 21.051413-21.037086 0-11.624735-9.439981-21.037087-21.051413-21.037087z" p-id="21042"></path></svg>