<?xml version="1.0" standalone="no"?><!DOCTYPE svg PUBLIC "-//W3C//DTD SVG 1.1//EN" "http://www.w3.org/Graphics/SVG/1.1/DTD/svg11.dtd"><svg t="1547611227124" class="icon" style="" viewBox="0 0 1024 1024" version="1.1" xmlns="http://www.w3.org/2000/svg" p-id="19915" xmlns:xlink="http://www.w3.org/1999/xlink" width="200" height="200"><defs><style type="text/css"></style></defs><path d="M491.412103 464.067314c31.016411-12.739139 65.908082-12.739139 96.92654 0.554632 12.186554 4.981455 26.033933-0.554632 31.014364-12.739139 4.989641-12.186554-0.554632-26.034956-12.735046-31.019481-43.205011-18.279319-90.279143-18.279319-133.485177-0.554632-43.200918 17.72571-76.989465 50.956555-94.711082 94.160543-3.87833 9.416464-1.661849 19.382443 4.984524 26.02984 2.216481 2.215458 4.430916 3.877307 7.754614 4.984524 12.186554 4.985548 26.02984-0.553609 31.015388-12.739139C435.471023 501.175467 459.839013 477.361085 491.412103 464.067314L491.412103 464.067314z" p-id="19916"></path><path d="M482.549248 569.302077c6.092765-14.400988 17.721617-26.033933 32.123628-32.126698 14.400988-6.092765 31.019481-6.092765 45.416376 0 12.186554 5.539156 26.033933 0 31.568996-12.18246 4.984524-12.18553-0.554632-26.033933-12.736069-31.019481-26.587542-11.07729-55.386448-11.07729-81.97399-0.553609-26.583448 11.07729-47.078225 31.014364-58.157561 57.602929-3.872191 9.41544-1.661849 19.387559 4.985548 26.033933 2.215458 2.216481 4.430916 3.877307 7.753591 4.985548C463.71632 587.022671 477.564723 581.484537 482.549248 569.302077L482.549248 569.302077z" p-id="19917"></path><path d="M690.245613 176.6073c-64.798818-0.554632-125.170814 32.122605-164.495448 85.848227-39.877219-53.725622-99.695606-86.402859-165.05315-86.402859-116.867708 0-212.132398 104.127546-212.132398 232.072543 0 73.650417 32.348756 126.427434 59.06728 168.968319-9.516748 23.218818-4.976338 51.27992 14.045901 70.301136l33.784454 33.784454c24.925692 24.921599 65.911152 24.921599 90.836845 0l22.706141-22.706141c24.925692-24.925692 24.925692-65.911152 0-90.836845l-33.784454-33.785477c-24.925692-24.921599-65.912176-24.921599-90.833775 0l-1.107217 1.108241-2.904143 3.154853c-24.221658-39.113833-44.728714-78.311577-44.728714-129.989563 0-99.695606 73.661673-180.00877 165.05008-180.00877 67.01837 0 125.175931 44.309158 150.656255 107.450221l0-0.553609c1.661849 6.646374 7.201006 11.631922 13.84431 11.631922 6.646374 0 12.18553-4.985548 13.847379-11.631922 25.480324-63.143109 83.083254-106.897635 150.648069-106.897635 90.836845 0 165.057243 80.862679 165.057243 180.00877 0 57.602929-24.925692 99.141998-53.17099 143.451156l0.143263 0.109494c-2.304486 3.654226-15.144932 22.99983-52.759621 63.586201-49.831942 45.845141-62.588477 49.848315-62.588477 49.848315s-19.23611-52.345182-58.707077-71.451332c-46.910403-23.952528-104.681154-17.72571-143.451156 21.049409-47.63695 47.078225-48.185442 124.614136-1.107217 172.250062 47.632857 48.186466 125.725446 48.741098 173.358303 0.554632 16.058744-16.617469 27.13808-36.005029 32.122605-57.048297 0.554632-0.554632 1.108241-1.108241 1.108241-1.108241s84.558861-53.968146 148.439774-145.108912c1.023306-1.162476 1.893116-2.307555 2.618641-3.436262l0.150426 0.112564c27.13808-43.203988 61.476143-96.371908 61.476143-172.807764C902.378012 280.181237 807.113321 176.6073 690.245613 176.6073L690.245613 176.6073zM254.907621 590.346369l22.711258-22.710234c6.646374-6.643304 17.166985-6.643304 23.814382 0l33.788547 33.788547c6.643304 6.646374 6.643304 17.171078 0 23.814382l-22.711258 22.710234c-6.646374 6.647397-17.171078 6.647397-23.818475 0l-33.784454-33.784454C248.261247 607.51847 248.261247 596.99479 254.907621 590.346369L254.907621 590.346369zM622.677729 754.289232c-29.353538 28.803-76.432787 28.803-105.789395 0-28.798906-28.79993-29.352515-76.432787 0-105.785302 28.804023-28.79993 76.43688-29.352515 105.789395 0C651.475612 677.30386 652.030243 724.93467 622.677729 754.289232L622.677729 754.289232z" p-id="19918"></path></svg>