<?xml version="1.0" standalone="no"?><!DOCTYPE svg PUBLIC "-//W3C//DTD SVG 1.1//EN" "http://www.w3.org/Graphics/SVG/1.1/DTD/svg11.dtd"><svg t="1543456984315" class="icon" style="" viewBox="0 0 1024 1024" version="1.1" xmlns="http://www.w3.org/2000/svg" p-id="3193" xmlns:xlink="http://www.w3.org/1999/xlink" width="128" height="128"><defs><style type="text/css"></style></defs><path d="M543.687622 368.456072h175.731355v64.074971H543.687622zM543.687622 544.48731h175.731355v64.07497H543.687622z" p-id="3194"></path><path d="M959.525185 960.02499V655.843811c0-26.589613-21.391644-47.881296-47.881296-47.881296h-64.074971V256.499805c0-26.589613-21.391644-47.881296-47.881296-47.881297H543.987505v-64.07497h80.168684V80.468567h-80.168684V0.299883h-64.074971v80.168684H399.843811v64.074971h80.168684v64.07497H224.412339c-26.589613 0-47.881296 21.391644-47.881296 47.881297v351.962514h-64.074971c-26.589613 0-47.881296 21.391644-47.881297 47.881297v304.081218H0.499805v63.575166H1023.600156v-64.074971h-64.074971z m-783.593908 0h-47.881297V672.037485H175.931277v287.987505z m414.138227-0.099961h-152.940258V755.204998h152.940258v204.720031z m193.424444 0.099961H653.944553V691.329949H373.254198v268.59508H240.006248V272.093713h543.4877v687.931277z m111.956267 0h-47.881297V672.037485h47.881297v287.987505z" p-id="3195"></path><path d="M303.981257 368.456072h175.731355v64.074971H303.981257zM303.981257 544.48731h175.731355v64.07497H303.981257z" p-id="3196"></path></svg>