<?xml version="1.0" standalone="no"?><!DOCTYPE svg PUBLIC "-//W3C//DTD SVG 1.1//EN" "http://www.w3.org/Graphics/SVG/1.1/DTD/svg11.dtd"><svg t="1540868882510" class="icon" style="" viewBox="0 0 1024 1024" version="1.1" xmlns="http://www.w3.org/2000/svg" p-id="1529" xmlns:xlink="http://www.w3.org/1999/xlink" width="200" height="200"><defs><style type="text/css"></style></defs><path d="M448.667136 46.6176a399.5136 399.5136 0 0 0-284.288 117.76 399.4368 399.4368 0 0 0-117.76 284.288c0 107.3664 41.8304 208.3328 117.76 284.288 3.3792 3.3792 7.0912 6.3232 10.5728 9.5744L698.062336 133.6064a398.7712 398.7712 0 0 0-249.3952-86.9888z" fill="#F8FCFF" p-id="1530"></path><path d="M732.955136 164.3776a411.136 411.136 0 0 0-34.8672-30.7712L174.951936 742.528c74.6496 69.632 171.136 108.16 273.7152 108.1856 107.3664 0 208.3584-41.8304 284.288-117.7856a399.5136 399.5136 0 0 0 117.76-284.2624 399.5392 399.5392 0 0 0-117.76-284.288z" fill="#EFF2F4" p-id="1531"></path><path d="M323.099136 370.4576c0.768 0.2048 1.4848 0.5632 2.2784 0.7168 9.0112 2.0736 18.2528 3.456 27.8784 3.456s18.8672-1.3824 27.8784-3.456a122.624 122.624 0 0 0 94.8736-119.296 122.7264 122.7264 0 0 0-122.752-122.7264c-2.9952 0-5.8112 0.6656-8.7552 0.896-63.616 4.5824-113.9712 57.0624-113.9712 121.856-0.0256 57.3184 39.4496 105.0368 92.5696 118.5536zM422.683136 412.7232l-69.4272 69.4528-36.8384-36.8384-32.6144-32.6144H148.686336v261.888H233.294336l224.9728-261.888z" fill="#7AC3E1" p-id="1532"></path><path d="M233.294336 674.6112h2.0736l224.4608-261.888h-1.5616z" fill="#7AC3E1" p-id="1533"></path><path d="M459.828736 412.7232l-224.4608 261.888H557.825536v-261.888h-87.04z" fill="#3BAFDA" p-id="1534"></path><path d="M637.851136 512.7168m-154.624 0a154.624 154.624 0 1 0 309.248 0 154.624 154.624 0 1 0-309.248 0Z" fill="#7FAA46" p-id="1535"></path><path d="M746.958336 467.5584l-36.4288-36.4288-90.3424 90.3168-54.9632-54.9888-36.48 36.4544 54.9888 54.9888 36.4288 36.4544h0.0256l36.4544-36.4544v-0.0256z" fill="#F9F9F9" p-id="1536"></path><path d="M796.545536 731.0592c-9.6 11.9296-19.84 23.5264-30.8992 34.5856-11.0848 11.0848-22.7072 21.2992-34.6112 30.8992 9.3696 9.9584 73.4208 74.3168 73.4208 74.3168l66.432-66.4064c0 0.0256-64.4096-63.9744-74.3424-73.3952z" fill="#259EBA" p-id="1537"></path><path d="M1015.758336 916.9408l-118.5792-118.5792a27.8784 27.8784 0 0 0-39.5264 0l-3.2512 3.2512-52.7872 52.7872-3.2512 3.2512a27.8528 27.8528 0 0 0 0 39.5264l118.5792 118.5792a27.8272 27.8272 0 0 0 39.5264 0l59.2896-59.2896a27.8272 27.8272 0 0 0 0-39.5264z" fill="#3BAFDA" p-id="1538"></path><path d="M765.927936 131.4048C681.166336 46.6688 568.500736 0 448.667136 0S216.167936 46.6688 131.406336 131.4048A445.7728 445.7728 0 0 0 0.001536 448.6656c0 119.8336 46.6688 232.4736 131.4304 317.2608 2.8416 2.8416 5.8112 5.4784 8.8064 8.0896l4.4544 3.968a446.7712 446.7712 0 0 0 303.9744 119.3472c119.8336 0 232.4992-46.6688 317.2608-131.4304a445.696 445.696 0 0 0 131.4048-317.2352 445.9776 445.9776 0 0 0-131.4048-317.2608z m-34.0736 600.448a398.0032 398.0032 0 0 1-283.1872 117.3248c-100.608 0-196.9408-37.8624-271.3088-106.5472l-5.3504-4.7872c-2.2016-1.9456-4.4544-3.8912-6.528-5.9648a397.8752 397.8752 0 0 1-117.2992-283.1872c0-106.9824 41.6512-207.5648 117.2992-283.2128s176.2304-117.2992 283.1872-117.2992 207.5392 41.6512 283.1872 117.2992a398.0032 398.0032 0 0 1 117.2992 283.2128c0 106.9568-41.6512 207.5392-117.2992 283.1616z" fill="#3BAFDA" p-id="1539"></path></svg>