<?xml version="1.0" standalone="no"?><!DOCTYPE svg PUBLIC "-//W3C//DTD SVG 1.1//EN" "http://www.w3.org/Graphics/SVG/1.1/DTD/svg11.dtd"><svg t="1542795135195" class="icon" style="" viewBox="0 0 1024 1024" version="1.1" xmlns="http://www.w3.org/2000/svg" p-id="5232" xmlns:xlink="http://www.w3.org/1999/xlink" width="200" height="200"><defs><style type="text/css"></style></defs><path d="M820.493276 667.554364V318.203683c0-28.625471-23.286192-51.918888-51.904438-51.918888H265.374444c-28.625471 0-51.911663 23.286192-51.911663 51.918888v349.343456c0 28.632696 23.286192 51.918888 51.911663 51.918888h42.967107l33.596274 96.410471L444.641276 719.466027h323.954787c28.618246 0 51.897213-23.286192 51.897213-51.911663z m-461.634488 88.094489l-23.047767-74.843829H265.374444a13.26511 13.26511 0 0 1-13.250659-13.25066V318.203683c0-7.311705 5.946179-13.25066 13.250659-13.25066h503.214394c7.297255 0 13.243435 5.946179 13.243435 13.25066v349.343456a13.26511 13.26511 0 0 1-13.243435 13.25066H428.934114l0.01445 0.0867-0.01445-0.0289-70.075326 74.793254zM181.831708 273.517025A13.43851 13.43851 0 0 1 195.255768 260.100191h46.810809v-43.350032h-46.810809c-31.305948 0-56.774092 25.468144-56.774092 56.766866v36.739152h43.350032v-36.739152zM181.831708 713.837748v-36.731927h-43.350032v36.731927c0 31.313173 25.468144 56.781317 56.774092 56.781316h46.810809v-43.350031h-46.810809a13.43851 13.43851 0 0 1-13.42406-13.431285zM838.758089 216.750159h-46.810809v43.350032h46.810809a13.43851 13.43851 0 0 1 13.42406 13.416834v36.739152h43.350032v-36.739152c0-31.298723-25.468144-56.766867-56.774092-56.766866zM852.182149 713.837748a13.445735 13.445735 0 0 1-13.42406 13.431285h-46.810809v43.350031h46.810809c31.305948 0 56.774092-25.468144 56.774092-56.781316v-36.731927h-43.350032v36.731927z" fill="#ffffff" p-id="5233"></path><path d="M376.870726 462.609864a21.675016 21.675016 0 0 0-21.675016 21.675016v36.507951a21.675016 21.675016 0 1 0 43.350032 0v-36.507951a21.675016 21.675016 0 0 0-21.675016-21.675016zM657.150356 542.467847a21.675016 21.675016 0 0 0 21.675016-21.675016v-36.507951a21.675016 21.675016 0 1 0-43.350032 0v36.507951a21.675016 21.675016 0 0 0 21.675016 21.675016zM517.014154 542.467847a21.675016 21.675016 0 0 0 21.675016-21.675016v-36.507951a21.675016 21.675016 0 1 0-43.350032 0v36.507951a21.675016 21.675016 0 0 0 21.675016 21.675016z" fill="#ffffff" p-id="5234"></path></svg>