<?xml version="1.0" standalone="no"?><!DOCTYPE svg PUBLIC "-//W3C//DTD SVG 1.1//EN" "http://www.w3.org/Graphics/SVG/1.1/DTD/svg11.dtd"><svg t="1547605540152" class="icon" style="" viewBox="0 0 1024 1024" version="1.1" xmlns="http://www.w3.org/2000/svg" p-id="4580" xmlns:xlink="http://www.w3.org/1999/xlink" width="200" height="200"><defs><style type="text/css"></style></defs><path d="M758.9 320H263.6V195.3c0-72.6 87.7-131.1 160.2-131.1h174.8c72.5 0 160.2 58.5 160.2 131.1V320z m-466.1-29.1h437v-95.6c0-54-73.3-102-131.1-102H423.9c-57.8 0-131.1 48-131.1 102v95.6zM729.8 331c0 140.6-98 255-218.5 255S292.8 471.6 292.8 331h-29.1c0 156.7 111.1 284.2 247.6 284.2 136.6 0 247.6-127.5 247.6-284.2h-29.1zM685.2 651c-8 0-14.6 6.3-14.6 14.2 0 95.4-35.8 210-84.5 265.2l-150-0.1c-51.2-56-84.3-170.7-84.3-265.1 0-7.8-6.5-14.2-14.6-14.2-8 0-14.6 6.3-14.6 14.2 0 105.3 37.4 228.3 96.4 289 2.7 2.8 6.6 4.4 10.6 4.4l163 0.1c4.1 0 8-1.7 10.7-4.6 56.3-59.6 96.4-182.7 96.4-289 0.1-7.7-6.4-14.1-14.5-14.1z" p-id="4581"></path><path d="M592.6 960.1c-184.5 0-386.7-4.4-483.4-8.3-47.5-1.9-45.9-59.8-44.9-98 0.2-5.7 0.3-11.1 0.3-16.1 0-126.5 284.7-201.8 382.8-213.5 32.5-3.8 96.2-3.8 128.8 0 98 11.7 382.4 87 382.4 213.5 0 5 0.1 10.3 0.3 16 1 37.4 2.6 93.9-44 98.1-69.2 6.1-191.3 8.3-322.3 8.3z m-80.7-309c-22.9 0-45.8 0.9-60.6 2.6-120.6 14.4-355.4 92.4-355.4 183.9 0 5.2-0.2 10.9-0.3 16.9-0.7 26.6-1.8 66.8 15 67.4 164.7 6.8 636 14.9 801.5 0.1 16.2-1.5 16.7-32.8 15.7-67.6-0.1-5.9-0.3-11.5-0.3-16.7 0-91.6-234.6-169.5-355.1-183.9-14.7-1.8-37.6-2.7-60.5-2.7zM496.7 134.8h29.1v116.5h-29.1z" p-id="4582"></path><path d="M453 178.5h116.5v29.1H453z" p-id="4583"></path></svg>