<?xml version="1.0" standalone="no"?><!DOCTYPE svg PUBLIC "-//W3C//DTD SVG 1.1//EN" "http://www.w3.org/Graphics/SVG/1.1/DTD/svg11.dtd"><svg t="1547610297632" class="icon" style="" viewBox="0 0 1024 1024" version="1.1" xmlns="http://www.w3.org/2000/svg" p-id="14415" xmlns:xlink="http://www.w3.org/1999/xlink" width="200" height="200"><defs><style type="text/css"></style></defs><path d="M396.826 820.076h-182.11c-19.019 0-34.478-15.544-34.478-34.808V198.956c0-19.231 15.573-34.808 34.808-34.808h586.31c19.187 0 34.808 15.555 34.808 34.442v136.278c0 13.253 10.744 23.998 23.998 23.998 13.253 0 23.998-10.744 23.998-23.998v-136.28c0-45.437-37.155-82.435-82.803-82.435H215.045c-45.744 0-82.803 37.066-82.803 82.802v586.31c0 45.714 36.89 82.803 82.473 82.803h182.11c13.253 0 23.998-10.743 23.998-23.997 0-13.253-10.744-23.995-23.997-23.995z m463.335-58.658c-13.253 0-23.998 10.744-23.998 23.998 0 19.203-15.459 34.66-34.787 34.66h-2.024c-13.253 0-23.997 10.744-23.997 23.999 0 13.253 10.743 23.998 23.997 23.998h2.024c45.835 0 82.782-36.944 82.782-82.656 0-13.256-10.744-23.999-23.997-23.999z" p-id="14416"></path><path d="M691.846 285.607c0-13.346-10.782-23.998-24.083-23.998H267.98c-13.452 0-24.083 10.743-24.083 23.998 0 13.345 10.782 23.997 24.083 23.997h399.783c13.452 0 24.083-10.744 24.083-23.997z m-423.9 167.981a23.946 23.946 0 0 0-24.05 23.998c0 13.346 10.768 23.998 24.05 23.998H539.81a23.946 23.946 0 0 0 24.049-23.998c0-13.345-10.767-23.998-24.05-23.998H267.947z m710.536 79.72L844.816 399.642c-12.534-12.535-32.766-12.578-45.218-0.126L492.824 706.291c-12.396 12.396-22.546 36.875-22.546 54.55v82.886c0 35.36 28.707 64.12 64.12 64.12h82.886c17.957 0 42.098-10.094 54.55-22.546l306.774-306.774c12.394-12.396 12.395-32.698-0.126-45.219zM637.897 851.363c-3.526 3.526-15.49 8.489-20.612 8.489H534.4c-8.883 0-16.127-7.25-16.127-16.126V760.84c0-4.925 5.08-17.203 8.49-20.612l211.08-211.081 111.14 111.13-211.086 211.086zM882.92 606.34L771.78 495.208l50.363-50.364L933.28 555.98l-50.36 50.36z" p-id="14417"></path></svg>