<?xml version="1.0" standalone="no"?><!DOCTYPE svg PUBLIC "-//W3C//DTD SVG 1.1//EN" "http://www.w3.org/Graphics/SVG/1.1/DTD/svg11.dtd"><svg t="1546916287953" class="icon" style="" viewBox="0 0 1024 1024" version="1.1" xmlns="http://www.w3.org/2000/svg" p-id="5826" xmlns:xlink="http://www.w3.org/1999/xlink" width="128" height="128"><defs><style type="text/css"></style></defs><path d="M564.928 0 488.256 0l0 0.32L186.752 299.072l0 425.856 301.504 298.944L488.256 1024l0.128 0 0 0 0 0 76.416 0c25.408 0 46.208-21.184 46.208-47.104L611.008 47.104C611.136 21.184 590.4 0 564.928 0z" p-id="5827"></path><path d="M156.032 295.872 46.208 295.872C20.8 295.872 0 317.056 0 342.912l0 338.24c0 25.792 20.8 46.976 46.208 46.976l109.76 0L156.032 295.872 156.032 295.872z" p-id="5828"></path><path d="M660.672 377.664 660.672 646.4c70.784-2.624 127.552-61.504 127.552-134.4C788.224 439.232 731.52 380.288 660.672 377.664z" p-id="5829"></path><path d="M662.016 233.28l0 62.272C757.632 319.424 828.48 407.168 828.736 512c-0.256 104.896-71.104 192.64-166.72 216.512l0 62.272c129.024-24.832 226.496-140.032 226.496-278.656S790.848 258.112 662.016 233.28z" p-id="5830"></path><path d="M662.016 116.736l0 69.696c77.888 6.592 147.648 41.344 199.872 94.464 58.048 59.2 93.888 140.736 93.888 231.04 0 90.368-35.84 171.968-93.888 231.04-52.224 53.12-121.984 87.872-199.872 94.528l0 69.696C864.256 893.184 1024 721.6 1024 512 1024 302.336 864.256 130.816 662.016 116.736z" p-id="5831"></path></svg>