<?xml version="1.0" standalone="no"?><!DOCTYPE svg PUBLIC "-//W3C//DTD SVG 1.1//EN" "http://www.w3.org/Graphics/SVG/1.1/DTD/svg11.dtd"><svg t="1541644731055" class="icon" style="" viewBox="0 0 1024 1024" version="1.1" xmlns="http://www.w3.org/2000/svg" p-id="2770" xmlns:xlink="http://www.w3.org/1999/xlink" width="128" height="128"><defs><style type="text/css"></style></defs><path d="M558.545455 549.236364V744.727273c0 9.309091 0 18.618182-9.309091 27.927272-9.309091 9.309091-27.927273 18.618182-37.236364 18.618182-9.309091 0-27.927273 0-27.927273-9.309091-9.309091-9.309091-18.618182-27.927273-18.618182-37.236363V549.236364c-93.090909-18.618182-148.945455-93.090909-148.945454-176.872728 0-102.4 83.781818-186.181818 195.490909-186.181818 111.709091 0 195.490909 83.781818 195.490909 186.181818 0 83.781818-65.163636 158.254545-148.945454 176.872728zM809.890909 93.090909C707.490909 93.090909 595.781818 55.854545 512 0c-83.781818 55.854545-195.490909 93.090909-297.890909 93.090909C167.563636 93.090909 130.327273 83.781818 93.090909 74.472727v446.836364c0 37.236364 18.618182 93.090909 46.545455 148.945454 27.927273 46.545455 74.472727 111.709091 130.327272 167.563637 46.545455 55.854545 102.4 102.4 167.563637 139.636363 27.927273 18.618182 46.545455 27.927273 65.163636 37.236364h27.927273c18.618182-9.309091 37.236364-18.618182 65.163636-37.236364 46.545455-37.236364 102.4-93.090909 148.945455-139.636363 55.854545-55.854545 102.4-121.018182 139.636363-176.872727 27.927273-55.854545 46.545455-102.4 46.545455-139.636364V74.472727c-37.236364 9.309091-74.472727 18.618182-121.018182 18.618182zM512 307.2c-37.236364 0-74.472727 27.927273-74.472727 65.163636 0 37.236364 27.927273 65.163636 74.472727 65.163637 37.236364 0 74.472727-27.927273 74.472727-65.163637 0-37.236364-37.236364-65.163636-74.472727-65.163636z" p-id="2771"></path></svg>