<?xml version="1.0" standalone="no"?><!DOCTYPE svg PUBLIC "-//W3C//DTD SVG 1.1//EN" "http://www.w3.org/Graphics/SVG/1.1/DTD/svg11.dtd"><svg t="1541645186301" class="icon" style="" viewBox="0 0 2602 1024" version="1.1" xmlns="http://www.w3.org/2000/svg" p-id="4436" xmlns:xlink="http://www.w3.org/1999/xlink" width="325.25" height="128"><defs><style type="text/css"></style></defs><path d="M1175.309237 0.836183v473.237854S1194.084901 49.122029 1638.323075 0.836183c7.760421-0.883138 284.602068 0 284.602068 0v277.817694S2030.51008 20.402076 2336.955817 0.836183c9.480741-0.557456 265.501721 0 265.501721 0v295.941995H2392.723356s-197.557073 26.675949-194.81575 217.448647c2.649413 184.917417 193.51502 208.339543 193.51502 208.339544h211.034912v298.730271h-266.942315c-9.480741 0-281.674927-14.081249-412.59008-276.376101v277.770739s-276.515965 0.697319-284.602068 0c-54.746537-4.368734-426.950057-62.32114-464.407477-482.997323-0.60441-7.110057 0 482.997323 0 482.997323h-329.588137V446.144312s-10.829424 365.790782-393.489732 403.479977c-10.87538 1.068956-156.66201 0-156.66201 0v173.066989H0.046954V0.836183h449.396137c363.746779 28.39527 394.884371 388.144952 394.88437 388.144953V0.836183h330.981776zM293.013854 273.170232v303.935188s137.375844 0.883138 137.375844 0 125.8491-22.308215 129.101923-150.062454c2.974096-115.996722-111.95367-156.382283-131.844245-153.362232l-134.633522-0.510502z m1618.711227 24.583992h-220.515653c-6.5536 0-191.70279 29.650045-186.450919 222.049156 4.880234 176.319813 181.153093 203.18158 181.153093 203.18158h227.301026c-107.864663-224.698568-1.487547-425.230736-1.487547-425.230736z" fill="#EB3200" p-id="4437"></path></svg>