<?xml version="1.0" standalone="no"?><!DOCTYPE svg PUBLIC "-//W3C//DTD SVG 1.1//EN" "http://www.w3.org/Graphics/SVG/1.1/DTD/svg11.dtd"><svg t="1547617474408" class="icon" style="" viewBox="0 0 1024 1024" version="1.1" xmlns="http://www.w3.org/2000/svg" p-id="22356" xmlns:xlink="http://www.w3.org/1999/xlink" width="200" height="200"><defs><style type="text/css"></style></defs><path d="M900.135587 904.575981" p-id="22357"></path><path d="M830.895546 810.951404l-33.159959-49.837777c80.408761-53.661032 133.407497-145.178304 133.407497-249.098574 0-103.935323-52.998736-195.437542-133.407497-249.113626l33.159959-49.822725c96.514597 64.40829 160.125121 174.213964 160.125121 298.936352C991.020667 636.737439 927.410143 746.558166 830.895546 810.951404zM731.310304 661.438071l-33.175011-49.822725c32.166515-21.479465 53.390093-58.041217 53.390093-99.615346 0-41.589181-21.223578-78.150933-53.390093-99.630398l33.175011-49.807673c48.257298 32.211671 80.077613 87.061826 80.077613 149.438071C811.387917 574.376246 779.567603 629.241452 731.310304 661.438071zM556.930766 991.020667l-44.915714 0 0-2.453506-261.576834-207.118036L92.871968 781.449125c-33.069646 0-59.877583-26.792885-59.877583-59.877583L32.994385 302.44351c0-33.069646 26.807938-59.877583 59.877583-59.877583l157.611407 0L512.015052 35.71883l0-2.709393L556.930766 33.009437c8.263648 0 14.96187 6.713274 14.96187 14.976922l0 928.072439C571.892636 984.322446 565.194414 991.020667 556.930766 991.020667zM272.504719 302.44351l-59.877583 0L92.871968 302.44351l0 419.128032 119.755167 0 59.877583 0 239.510334 190.3198L512.015052 112.12371 272.504719 302.44351z" p-id="22358"></path></svg>