<?xml version="1.0" standalone="no"?><!DOCTYPE svg PUBLIC "-//W3C//DTD SVG 1.1//EN" "http://www.w3.org/Graphics/SVG/1.1/DTD/svg11.dtd"><svg t="1544692844116" class="icon" style="" viewBox="0 0 1024 1024" version="1.1" xmlns="http://www.w3.org/2000/svg" p-id="2096" xmlns:xlink="http://www.w3.org/1999/xlink" width="200" height="200"><defs><style type="text/css"></style></defs><path d="M904.4 325.6l-0.1-7.5c-0.5-36.6-1-76.3-1.1-119.5 0.1-31.1-19.7-58.2-49.5-67.4-108.2-33-204.7-52.4-333.8-66.9l-7.3-0.3-3.2 0.1c-66 3.4-128 11.8-184.3 25-55.1 12.9-107.6 27.1-156.3 42.4-29.2 9.4-48.8 36.3-48.7 67 0 34.8-0.3 67.3-0.6 97.7l-0.2 17.9C116 618.8 114.5 757.8 429.8 935c30.6 17.3 56.3 25 83.3 25 26.3 0 52.5-7.7 82.5-24.2 314.7-173.4 313.1-292.3 308.8-610.2zM553.7 858.7c-21.6 11.8-33 13.4-40.6 13.4-8.4 0-19.2-1.7-40.6-13.8-270-151.8-269.1-242.5-265.8-543.3l0.2-17.9c0.3-26.9 0.6-55.3 0.6-85.6 42.9-13.1 89.1-25.5 137.4-36.8 51.3-12 108.2-19.7 166.1-22.9 117.7 13.2 207.2 30.7 304.9 59.8 0.1 38.7 0.6 74.5 1.1 107.7l0.1 7.5c4.1 310.2 5.1 383.9-263.4 531.9zM711 329.2c-8.6 0-16.9 3.5-22.9 9.7L469.2 562.5 361.7 452.8c-6-6.2-14.3-9.7-22.9-9.7-8.6 0-16.9 3.4-22.9 9.6-12.7 12.9-12.7 33.6-0.1 46.6l130.4 133.1c6.1 6.2 14.3 9.7 22.9 9.7 8.6 0 16.9-3.5 22.9-9.7l241.9-247c12.6-13 12.6-33.7-0.1-46.6-5.9-6.2-14.2-9.6-22.8-9.6z" fill="#ffffff" p-id="2097"></path></svg>