<?xml version="1.0" standalone="no"?><!DOCTYPE svg PUBLIC "-//W3C//DTD SVG 1.1//EN" "http://www.w3.org/Graphics/SVG/1.1/DTD/svg11.dtd"><svg t="1546914019428" class="icon" style="" viewBox="0 0 1024 1024" version="1.1" xmlns="http://www.w3.org/2000/svg" p-id="4347" xmlns:xlink="http://www.w3.org/1999/xlink" width="128" height="128"><defs><style type="text/css"></style></defs><path d="M512 1024c-282.7712 0-512-229.2288-512-512S229.2288 0 512 0s512 229.2288 512 512-229.2288 512-512 512z m0-128c212.0768 0 384-171.9232 384-384s-171.9232-384-384-384-384 171.9232-384 384 171.9232 384 384 384z m129.8176-150.8736l90.5088-90.5088L487.3088 409.6 396.8 500.1088l245.0176 245.0176z m-185.6-185.6l90.5088-90.5088L365.7088 288 275.2 378.5088l181.0176 181.0176z" p-id="4348"></path></svg>