<?xml version="1.0" standalone="no"?><!DOCTYPE svg PUBLIC "-//W3C//DTD SVG 1.1//EN" "http://www.w3.org/Graphics/SVG/1.1/DTD/svg11.dtd"><svg t="1547467185306" class="icon" style="" viewBox="0 0 1024 1024" version="1.1" xmlns="http://www.w3.org/2000/svg" p-id="1462" xmlns:xlink="http://www.w3.org/1999/xlink" width="128" height="128"><defs><style type="text/css"></style></defs><path d="M398.9248 790.944a1121.888 1121.888 0 0 1-87.232-78.6368 1121.888 1121.888 0 0 1-78.6368-87.232c-11.4432 23.136-20.9024 45.8496-28.224 67.8144-24 71.9808-20.1984 117.44-5.6832 131.968 14.5152 14.5088 59.9808 18.304 131.968-5.6896 21.952-7.3216 44.672-16.7808 67.808-28.224zM512 721.4464c38.2528-28.0576 76.2368-60.5952 112.544-96.9024S693.3888 550.2528 721.4464 512c-28.0576-38.2528-60.5952-76.2368-96.9024-112.544S550.2528 330.6112 512 302.5536c-38.2528 28.0576-76.2368 60.5952-112.544 96.9024S330.6112 473.7472 302.5536 512c28.0576 38.2528 60.5952 76.2368 96.9024 112.544S473.7472 693.3888 512 721.4464z m278.944-322.5216c11.4432-23.136 20.9024-45.8496 28.224-67.8144 24-71.9808 20.1984-117.44 5.6832-131.968-14.5152-14.5088-59.9808-18.304-131.968 5.6896-21.952 7.3216-44.672 16.7808-67.808 28.224a1121.888 1121.888 0 0 1 87.232 78.6368 1121.888 1121.888 0 0 1 78.6368 87.232zM153.6 512C55.2 347.8272 32.96 189.8048 111.3856 111.3856 189.8048 32.96 347.8272 55.1936 512 153.6c164.1728-98.4 322.1952-120.64 400.6144-42.2144C991.04 189.8048 968.8064 347.8272 870.4 512c98.4 164.1728 120.64 322.1952 42.2144 400.6144C834.1952 991.04 676.1728 968.8064 512 870.4c-164.1728 98.4-322.1952 120.64-400.6144 42.2144C32.96 834.1952 55.1936 676.1728 153.6 512z m79.456-113.0752a1121.888 1121.888 0 0 1 78.6368-87.232 1121.888 1121.888 0 0 1 87.232-78.6368c-23.136-11.4432-45.8496-20.9024-67.8144-28.224-71.9808-24-117.44-20.1984-131.968-5.6832-14.5088 14.5152-18.304 59.9808 5.6896 131.968 7.3216 21.952 16.7808 44.672 28.224 67.808z m557.888 226.1504a1121.8944 1121.8944 0 0 1-78.6368 87.232 1121.8944 1121.8944 0 0 1-87.232 78.6368c23.136 11.4432 45.8496 20.9024 67.8144 28.224 71.9808 24 117.44 20.1984 131.968 5.6832 14.5088-14.5152 18.304-59.9808-5.6896-131.968-7.3216-21.952-16.7808-44.672-28.224-67.808z" p-id="1463"></path></svg>