<?xml version="1.0" standalone="no"?><!DOCTYPE svg PUBLIC "-//W3C//DTD SVG 1.1//EN" "http://www.w3.org/Graphics/SVG/1.1/DTD/svg11.dtd"><svg t="1545647640035" class="icon" style="" viewBox="0 0 1024 1024" version="1.1" xmlns="http://www.w3.org/2000/svg" p-id="1850" xmlns:xlink="http://www.w3.org/1999/xlink" width="200" height="200"><defs><style type="text/css"></style></defs><path d="M617.472 9.92l0 72.512c192.704 47.488 336.192 221.312 336.192 428.48 0 243.584-198.08 441.664-441.664 441.664-243.52 0-441.664-198.08-441.664-441.664 0-207.168 143.552-380.928 336.192-428.48L406.528 9.92C174.656 58.688 0 264.704 0 510.912c0 282.304 229.76 512 512 512s512-229.76 512-512C1024 264.704 849.344 58.688 617.472 9.92z" p-id="1851"></path><path d="M476.864 1.088l70.336 0 0 509.824-70.336 0 0-509.824Z" p-id="1852"></path></svg>