<?xml version="1.0" standalone="no"?><!DOCTYPE svg PUBLIC "-//W3C//DTD SVG 1.1//EN" "http://www.w3.org/Graphics/SVG/1.1/DTD/svg11.dtd"><svg t="1547090493629" class="icon" style="" viewBox="0 0 1024 1024" version="1.1" xmlns="http://www.w3.org/2000/svg" p-id="1588" xmlns:xlink="http://www.w3.org/1999/xlink" width="128" height="128"><defs><style type="text/css"></style></defs><path d="M443.131202 46.288864l133.22161 0 0 114.028666-133.22161 0 0-114.028666Z" p-id="1589"></path><path d="M942.712238 46.288864l-171.042999 0 0 114.028666 99.916207 0L871.585447 901.503859 147.898567 901.503859 147.898567 160.31753l101.609702 0L249.508269 46.288864 76.771775 46.288864c-22.015436 0-40.079383 18.628445-40.079383 41.208379l0 886.826902c0 22.579934 18.063947 41.208379 40.079383 41.208379l865.375965 0c22.015436 0 40.079383-18.628445 40.079383-41.208379L982.227122 87.497244C982.791621 64.91731 964.727674 46.288864 942.712238 46.288864z" p-id="1590"></path><path d="M381.600882 2.257993 306.522602 2.257993c-10.16097 0-18.063947 6.77398-18.063947 15.805954l0 169.914002c0 9.031974 7.902977 15.805954 18.063947 15.805954l75.07828 0c10.16097 0 18.063947-6.77398 18.063947-15.805954L399.664829 18.628445C399.664829 9.596472 391.761852 2.257993 381.600882 2.257993z" p-id="1591"></path><path d="M713.52591 2.257993l-75.07828 0c-10.16097 0-18.063947 6.77398-18.063947 15.805954l0 169.914002c0 9.031974 7.902977 15.805954 18.063947 15.805954l75.07828 0c10.16097 0 18.063947-6.77398 18.063947-15.805954L731.589857 18.628445C732.154355 9.596472 723.68688 2.257993 713.52591 2.257993z" p-id="1592"></path><path d="M794.813671 454.985667c-155.801544 89.190739-312.167585 342.085998-312.167585 342.085998-134.350606-163.70452-240.476295-197.009923-240.476295-197.009923l134.350606-77.900772c63.223815 60.401323 106.690187 103.867696 106.690187 103.867696C658.205072 290.15215 794.813671 246.685777 794.813671 246.685777L794.813671 454.985667z" p-id="1593"></path></svg>