<?xml version="1.0" standalone="no"?><!DOCTYPE svg PUBLIC "-//W3C//DTD SVG 1.1//EN" "http://www.w3.org/Graphics/SVG/1.1/DTD/svg11.dtd"><svg t="1541644576333" class="icon" style="" viewBox="0 0 1024 1024" version="1.1" xmlns="http://www.w3.org/2000/svg" p-id="5308" xmlns:xlink="http://www.w3.org/1999/xlink" width="128" height="128"><defs><style type="text/css"></style></defs><path d="M338.074 1024V726.938h24.166c33.69 0 61.082-27.444 61.082-61.082V444.058c0-33.741-27.392-61.133-61.082-61.133H192.41c-33.69 0-61.03 27.392-61.03 61.133v221.798c0 33.638 27.34 61.082 61.03 61.082h24.166V1024h-53.35V776.038l-5.325-1.69a113.971 113.971 0 0 1-79.258-108.492V444.058c0-62.772 51.047-113.87 113.818-113.87H362.24c63.078 0 114.432 51.098 114.432 113.87v221.798c0 49.51-31.846 93.082-79.258 108.493l-5.324 1.69V1024h-54.016z m549.324-89.6a58.112 58.112 0 0 1-58.06-57.958c0-32 26.06-58.061 58.06-58.061 31.95 0 58.01 26.06 58.01 58.06 0 31.95-26.06 57.959-58.01 57.959z m-249.753-31.283v-2.048l-3.482-2.355a23.398 23.398 0 0 1-9.523-11.725 46.131 46.131 0 0 1-3.38-12.698l0.103-333.977H564.07a26.88 26.88 0 0 1-18.124-8.704 25.088 25.088 0 0 1-6.759-18.637 25.805 25.805 0 0 1 25.088-25.293h57.037V152.013c0-3.943 0.82-9.677 4.608-14.695a28.109 28.109 0 0 1 22.63-13.21h87.757a26.266 26.266 0 0 1 26.061 27.24 26.47 26.47 0 0 1-25.702 25.446l-62.055-0.052v310.17h62.31c14.49 0 26.676 12.186 26.676 26.675a26.982 26.982 0 0 1-26.675 26.675h-62.31v309.504h61.695c14.439 0 26.675 12.186 26.675 26.676a27.034 27.034 0 0 1-26.675 26.675h-98.662z m249.753-331.571a58.112 58.112 0 0 1-58.06-58.01 58.112 58.112 0 0 1 116.07 0c0 32-26.06 58.01-58.01 58.01zM276.992 266.342c-73.523 0-133.274-59.75-133.274-133.222S203.52 0 276.992 0a133.325 133.325 0 0 1 133.222 133.171c-0.614 73.421-60.364 133.171-133.222 133.171z m0-212.377c-44.032 0-79.872 35.84-79.872 79.872s35.789 79.872 79.872 79.872c43.98 0 79.872-35.84 79.872-79.872s-35.84-79.872-79.872-79.872zM887.398 208.69a58.112 58.112 0 0 1-58.06-58.01 58.112 58.112 0 0 1 116.07 0c0 32-26.06 58.01-58.01 58.01z" p-id="5309"></path></svg>