<?xml version="1.0" standalone="no"?><!DOCTYPE svg PUBLIC "-//W3C//DTD SVG 1.1//EN" "http://www.w3.org/Graphics/SVG/1.1/DTD/svg11.dtd"><svg t="1547609413768" class="icon" style="" viewBox="0 0 1024 1024" version="1.1" xmlns="http://www.w3.org/2000/svg" p-id="10712" xmlns:xlink="http://www.w3.org/1999/xlink" width="200" height="200"><defs><style type="text/css"></style></defs><path d="M765.664 368.368a29.632 29.632 0 0 1-29.648 29.648H270.88a29.632 29.632 0 1 1 0-59.296h465.136a29.664 29.664 0 0 1 29.648 29.648zM423.056 125.264a38.88 38.88 0 0 1-77.728 0V55.44a38.88 38.88 0 1 1 77.728 0v69.824z m238.528-0.016a38.88 38.88 0 1 1-77.744 0V55.44a38.88 38.88 0 1 1 77.744 0v69.808z" p-id="10713"></path><path d="M799.712 1007.44H224.288C103.936 1007.44 6.032 909.664 6.032 789.568V276.624C6.032 156.448 103.936 58.72 224.288 58.72h575.44c120.336 0 218.256 97.728 218.256 217.904v512.912c-0.016 120.128-97.888 217.904-218.272 217.904zM224.288 121.968c-85.456 0-155.008 69.376-155.008 154.656v512.912c0 85.28 69.568 154.64 155.008 154.64h575.44c85.472 0 155.008-69.392 155.008-154.64V276.624c0-85.296-69.504-154.656-155.008-154.656H224.288z" p-id="10714"></path><path d="M622.704 546.928c0 16-12.976 28.976-29.008 28.976H270.208a28.992 28.992 0 1 1 0-57.984h323.488c16.032 0 29.008 12.992 29.008 29.008z m-149.568 185.76c0 15.312-12.384 27.664-27.664 27.664H268.896a27.664 27.664 0 1 1 0-55.328h176.576c15.28 0 27.664 12.384 27.664 27.664z m381.488-89.616a27.68 27.68 0 0 1-27.664 27.68H650.336a27.664 27.664 0 0 1 0-55.344h176.608c15.28 0 27.68 12.384 27.68 27.664z" p-id="10715"></path><path d="M738.672 527.136c15.28 0 27.648 12.4 27.648 27.664V731.36a27.68 27.68 0 0 1-55.344 0V554.816c0-15.264 12.4-27.68 27.696-27.68z" p-id="10716"></path></svg>