<?xml version="1.0" standalone="no"?><!DOCTYPE svg PUBLIC "-//W3C//DTD SVG 1.1//EN" "http://www.w3.org/Graphics/SVG/1.1/DTD/svg11.dtd"><svg t="1544517043744" class="icon" style="" viewBox="0 0 1024 1024" version="1.1" xmlns="http://www.w3.org/2000/svg" p-id="5950" xmlns:xlink="http://www.w3.org/1999/xlink" width="128" height="128"><defs><style type="text/css"></style></defs><path d="M661.4 717.6l113.1 4.3 72.3-371.5s51.6 43 77.9 80.4c26.4 37.4 45 52.9 56 48.5 11-4.5 4.4-26.5 4.4-26.5-8.7-32-139.4-286.6-480.6-286.6C230.1 166.5 37 354.9 37 513.7s186.5 343.9 474.1 343.9 430.1-158.8 468.5-263.4c0 0 7.7-19.9 0-24.2-7.6-4.4-27.3 6.9-53.7 44-65.9 92.6-186.6 167.5-363.2 167.5-76.9 0-160.9-19.2-230.1-56.2h118.2c62.6 0 208.4-16.5 208.4-115.8 0-100.2-131.6-105.8-131.6-189.6 0-36.4 54.9-46.3 90-46.3s84.5-3.3 84.5-3.3l8.9-38.5H536.5c-94.4 0-170.1 33.1-170.1 96.9 0 104.7 140.5 121.2 140.5 182.9 0 33.1-40.6 61.7-92.2 61.7s-101-30.9-101-30.9L283 693.3c-58.5-44.8-97.8-106.2-97.8-183.1 0-167.5 238.2-248 376.4-248 138.3 0 222.7 45.3 256.8 68.4H734l-72.6 387z m0 0" p-id="5951"></path></svg>