<?xml version="1.0" standalone="no"?><!DOCTYPE svg PUBLIC "-//W3C//DTD SVG 1.1//EN" "http://www.w3.org/Graphics/SVG/1.1/DTD/svg11.dtd"><svg t="1542612675251" class="icon" style="" viewBox="0 0 1024 1024" version="1.1" xmlns="http://www.w3.org/2000/svg" p-id="1343" xmlns:xlink="http://www.w3.org/1999/xlink" width="128" height="128"><defs><style type="text/css"></style></defs><path d="M862.173846 835.541791c0 30.244838-25.12626 54.631248-56.047504 54.631248H105.493148l98.147344-450.723402c0-30.1773 24.923646-54.631248 55.909357-54.631248H904.207172c30.919197 0 55.977919 24.452925 55.977919 54.631248l-98.011245 396.092154M217.5155 343.827813h630.647238v-53.653991c0-30.178323-25.192775-54.630225-56.045458-54.630225H455.844537V185.999205c0-30.110785-25.12626-54.597479-56.04648-54.597479H119.503233c-30.918173 0-56.044434 24.486694-56.044434 54.597479v649.542586l98.012268-437.048961c-0.001023-30.1773 25.12626-54.665017 56.044433-54.665017m0 0" p-id="1344"></path></svg>