<?xml version="1.0" standalone="no"?><!DOCTYPE svg PUBLIC "-//W3C//DTD SVG 1.1//EN" "http://www.w3.org/Graphics/SVG/1.1/DTD/svg11.dtd"><svg t="1545726673016" class="icon" style="" viewBox="0 0 1024 1024" version="1.1" xmlns="http://www.w3.org/2000/svg" p-id="2392" xmlns:xlink="http://www.w3.org/1999/xlink" width="128" height="128"><defs><style type="text/css"></style></defs><path d="M976 1024 304 1024c-26.496 0-48-21.504-48-48 0-68.864 29.056-152.192 77.76-222.944 40.704-59.104 90.688-103.616 144.672-129.6-23.808-21.632-44.288-48.032-60.512-78.112-26.016-48.256-39.744-104.064-39.744-161.344 0-79.616 26.208-154.816 73.792-211.776C501.632 112.736 568.416 80 640 80s138.368 32.736 188.032 92.224c47.584 56.96 73.792 132.192 73.792 211.776 0 57.28-13.728 113.056-39.744 161.344-16.224 30.112-36.704 56.48-60.512 78.112 53.984 25.984 104 70.496 144.672 129.6C994.944 823.808 1024 907.136 1024 976 1024 1002.496 1002.496 1024 976 1024zM358.08 928l563.84 0c-9.216-39.328-28.512-82.4-54.752-120.512-41.44-60.224-93.184-99.616-145.632-110.912-22.112-4.768-37.888-24.32-37.888-46.912l0-34.304c0-17.248 9.28-33.184 24.256-41.728 59.488-33.824 97.92-108.256 97.92-189.632 0-114.688-74.4-208-165.824-208s-165.824 93.312-165.824 208c0 81.344 38.432 155.808 97.92 189.632 15.008 8.544 24.256 24.448 24.256 41.728l0 34.304c0 22.624-15.776 42.144-37.888 46.912-52.448 11.296-104.192 50.688-145.632 110.912C386.592 845.6 367.296 888.672 358.08 928zM197.12 864l-95.04 0c9.216-39.328 28.512-82.4 54.752-120.512 41.472-60.224 93.184-99.616 145.632-110.912 22.112-4.768 37.888-24.32 37.888-46.912l0-34.304c0-17.248-9.28-33.184-24.256-41.728-59.488-33.824-97.92-108.256-97.92-189.632 0-114.688 74.4-208 165.824-208 6.24 0 12.416 0.448 18.496 1.312 26.368-29.344 56.224-53.184 88.64-71.008C457.952 25.056 421.632 16 384 16c-71.584 0-138.368 32.736-188.032 92.224C148.384 165.184 122.176 240.384 122.176 320c0 57.28 13.728 113.056 39.744 161.344 16.224 30.112 36.704 56.48 60.512 78.112-53.984 25.984-104 70.496-144.672 129.6C29.056 759.808 0 843.136 0 912c0 26.496 21.504 48 48 48l132.384 0C181.856 928.96 187.584 896.576 197.12 864z" p-id="2393"></path></svg>