<?xml version="1.0" standalone="no"?><!DOCTYPE svg PUBLIC "-//W3C//DTD SVG 1.1//EN" "http://www.w3.org/Graphics/SVG/1.1/DTD/svg11.dtd"><svg t="1544081270627" class="icon" style="" viewBox="0 0 1024 1024" version="1.1" xmlns="http://www.w3.org/2000/svg" p-id="2820" xmlns:xlink="http://www.w3.org/1999/xlink" width="128" height="128"><defs><style type="text/css"></style></defs><path d="M870.432 779.936c131.424-175.456 117.888-425.184-41.664-584.704C653.792 20.256 370.144 20.288 195.2 195.232 20.224 370.208 20.224 653.824 195.2 828.8c159.52 159.52 409.216 173.12 584.704 41.664l39.424 39.424c22.4 22.4 60.768 20.288 85.792-4.704s27.136-63.36 4.704-85.792l-39.392-39.456z m-492.864-284.608h152v-62.784h-151.616v-48h151.616v-64h-151.584v-48h151.584v-48h48v48h171.584v48H577.6v64h171.584v48H577.6v62.784h104.288c40.512 0 73.344 28.672 73.344 64v90.4c0 35.328-32.832 64-73.344 64h-55.392v-48h41.088c32.864 0 40.832-16.608 40.832-37.024v-48.32c0-20.48-7.968-37.056-40.832-37.056H577.6v177.216h-48v-177.216h-135.36a93.44 93.44 0 0 0-16.672 1.664v-49.664zM265.6 246.976h48v80H265.6v-80z m492.8 552.448H329.6c-35.328 0-64-27.616-64-61.664V383.008h48.896a86.144 86.144 0 0 0-0.896 12.032v306.336c0 27.616 11.296 50.016 40 50.016H758.4v48.032z" fill="" p-id="2821"></path></svg>