<?xml version="1.0" standalone="no"?><!DOCTYPE svg PUBLIC "-//W3C//DTD SVG 1.1//EN" "http://www.w3.org/Graphics/SVG/1.1/DTD/svg11.dtd"><svg t="1547617237232" class="icon" style="" viewBox="0 0 1024 1024" version="1.1" xmlns="http://www.w3.org/2000/svg" p-id="21270" xmlns:xlink="http://www.w3.org/1999/xlink" width="200" height="200"><defs><style type="text/css"></style></defs><path d="M974.464009 883.72909h-469.845255v95.283184a45.192526 45.192526 0 0 1-45.192526 44.953593 43.281059 43.281059 0 0 1-28.347728-10.308265l-158.378641-130.133312H49.570296a45.021859 45.021859 0 0 1-44.987725-44.953592v-793.599868A44.714659 44.714659 0 0 1 49.365497 0.017237h925.098512a45.004792 45.004792 0 0 1 44.987726 44.953593v793.804668a45.004792 45.004792 0 0 1-44.987726 44.953592z m-20.753063-818.175864H69.930826v752.656942h203.793033a44.885326 44.885326 0 0 1 28.552529 10.308265l136.601577 126.003179v-74.291188c0-24.746663 37.18826-62.020256 62.05439-62.020256h452.778591V65.553226zM409.523303 623.257667a26.623996 26.623996 0 0 1 0 37.75146 26.914129 26.914129 0 0 1-18.909863 7.833599c-6.775466 0-13.550931-2.679466-18.892797-7.833599l-139.076244-139.007977a26.692262 26.692262 0 0 1 18.892797-45.585059h366.899139c14.779731 0 26.709329 11.963731 26.709329 26.606929s-11.929598 26.606929-26.709329 26.606929h-302.59195l93.678918 93.627718zM224.827867 322.781984c0-14.643198 11.929598-26.606929 26.709329-26.606929h468.377522l-93.678918-93.627718a26.623996 26.623996 0 1 1 37.597861-37.75146l139.076243 139.007976c7.594665 7.628799 9.864532 18.97813 5.751466 29.081596a25.890129 25.890129 0 0 1-24.439463 16.486397H251.537196c-14.779731 0-26.709329-11.946665-26.709329-26.589862z" p-id="21271"></path></svg>