<?xml version="1.0" standalone="no"?><!DOCTYPE svg PUBLIC "-//W3C//DTD SVG 1.1//EN" "http://www.w3.org/Graphics/SVG/1.1/DTD/svg11.dtd"><svg t="1543478506775" class="icon" style="" viewBox="0 0 1024 1024" version="1.1" xmlns="http://www.w3.org/2000/svg" p-id="1762" xmlns:xlink="http://www.w3.org/1999/xlink" width="200" height="200"><defs><style type="text/css"></style></defs><path d="M800 768h-96V576c0-105.9-86.1-192-192-192s-192 86.1-192 192v192h-96c-17.7 0-32 14.3-32 32s14.3 32 32 32h576c17.7 0 32-14.3 32-32s-14.3-32-32-32z m-416 0V576c0-70.6 57.4-128 128-128s128 57.4 128 128v192H384zM512 320c17.7 0 32-14.3 32-32V160c0-17.7-14.3-32-32-32s-32 14.3-32 32v128c0 17.7 14.3 32 32 32zM715.6 404.4c8.2 0 16.4-3.1 22.6-9.4l90.5-90.5c12.5-12.5 12.5-32.8 0-45.3s-32.8-12.5-45.3 0L693 349.7c-12.5 12.5-12.5 32.8 0 45.3 6.3 6.2 14.5 9.4 22.6 9.4zM928 544H800c-17.7 0-32 14.3-32 32s14.3 32 32 32h128c17.7 0 32-14.3 32-32s-14.3-32-32-32zM256 576c0-17.7-14.3-32-32-32H96c-17.7 0-32 14.3-32 32s14.3 32 32 32h128c17.7 0 32-14.3 32-32zM285.7 395c6.2 6.2 14.4 9.4 22.6 9.4s16.4-3.1 22.6-9.4c12.5-12.5 12.5-32.8 0-45.3l-90.5-90.5c-12.5-12.5-32.8-12.5-45.3 0s-12.5 32.8 0 45.3l90.6 90.5z" p-id="1763" fill="#ffffff"></path></svg>