<?xml version="1.0" standalone="no"?><!DOCTYPE svg PUBLIC "-//W3C//DTD SVG 1.1//EN" "http://www.w3.org/Graphics/SVG/1.1/DTD/svg11.dtd"><svg t="1547610064775" class="icon" style="" viewBox="0 0 1024 1024" version="1.1" xmlns="http://www.w3.org/2000/svg" p-id="12397" xmlns:xlink="http://www.w3.org/1999/xlink" width="200" height="200"><defs><style type="text/css"></style></defs><path d="M288 512h256c17.92 0 32-14.08 32-32s-14.08-32-32-32H288c-17.92 0-32 14.08-32 32s14.08 32 32 32zM768 64H192c-70.4 0-128 57.6-128 128v576c0 70.4 57.6 128 128 128h576c70.4 0 128-57.6 128-128V192c0-70.4-57.6-128-128-128z m64 704c0 35.2-28.8 64-64 64H192c-35.2 0-64-28.8-64-64V192c0-35.2 28.8-64 64-64h576c35.2 0 64 28.8 64 64v576zM672 256H288c-17.92 0-32 14.08-32 32s14.08 32 32 32h384c17.92 0 32-14.08 32-32s-14.08-32-32-32z m-64 384H288c-17.92 0-32 14.08-32 32s14.08 32 32 32h320c17.92 0 32-14.08 32-32s-14.08-32-32-32z" p-id="12398"></path></svg>